<?xml version="1.0" encoding="utf-8"?>
<!-- Generator: Adobe Illustrator 23.0.4, SVG Export Plug-In . SVG Version: 6.00 Build 0)  -->
<svg version="1.1" id="Ebene_1" xmlns="http://www.w3.org/2000/svg" xmlns:xlink="http://www.w3.org/1999/xlink" x="0px" y="0px"
	 viewBox="0 0 1039 231" style="enable-background:new 0 0 1039 231;" xml:space="preserve">
<style type="text/css">
	.st0{fill:#877F7A;}
</style>
<path d="M829.8,114.3c-3.3,0-6.1-0.5-8.3-1.4c-2.2-0.9-4-2.3-5.3-4c-1.3-1.7-2.3-3.8-2.8-6.1c-0.5-2.4-0.8-5.1-0.8-8V62h-10.1V48.6
	h10.1V30.8l18.1,0v17.8H844V62h-13.3v30.3c0,5.1,2,7.6,6.1,7.6c2.5,0,4.9-0.1,7.1-0.4l1.6,13.2c-1.6,0.4-3.9,0.7-6.8,1
	C835.9,114.1,832.9,114.3,829.8,114.3L829.8,114.3z"/>
<path d="M476.8,115.3c-5.8,0-10.7-0.9-14.9-2.7c-4.2-1.8-7.6-4.3-10.3-7.4c-2.7-3.1-4.7-6.8-5.9-10.9c-1.3-4.2-1.9-8.6-1.9-13.3
	c0-4.7,0.6-9.1,1.9-13.3c1.3-4.2,3.3-7.9,5.9-11c2.7-3.1,6.1-5.6,10.3-7.5c4.2-1.8,9.1-2.7,14.9-2.7c5.7,0,10.6,0.9,14.8,2.7
	c4.2,1.8,7.6,4.3,10.4,7.5c2.7,3.1,4.7,6.8,6.1,11c1.3,4.2,2,8.6,2,13.3c0,4.7-0.7,9.1-2,13.3c-1.3,4.2-3.3,7.8-6.1,10.9
	c-2.7,3.1-6.2,5.6-10.4,7.4C487.4,114.4,482.5,115.3,476.8,115.3L476.8,115.3z M476.8,101c3.4,0,6.3-1,8.7-3c2.4-2,4-4.6,4.9-7.7
	c0.9-3.1,1.3-6.2,1.3-9.3c0-4.5-0.8-8.4-2.3-11.7c-1.5-3.3-3.4-5.5-5.7-6.7c-2.3-1.2-4.6-1.8-7-1.8c-2.4,0-4.5,0.5-6.3,1.4
	c-1.9,1-3.4,2.3-4.7,4.1c-1.3,1.8-2.3,3.9-2.9,6.4c-0.7,2.5-1,5.3-1,8.3c0,3.1,0.3,5.8,1,8.3c0.7,2.5,1.7,4.6,2.9,6.3
	c1.3,1.7,2.8,3.1,4.7,4C472.4,100.5,474.5,101,476.8,101L476.8,101z"/>
<path d="M540.1,115.3c-6.3,0-11.4-1.8-15.3-5.5c-1.9-1.9-3.4-4.3-4.4-7.2c-1.1-2.9-1.6-6.2-1.6-10v-44h18v39.7c0,1.8,0.1,3.5,0.5,5
	c0.3,1.5,0.8,2.7,1.6,3.8c0.8,1.1,1.8,1.9,3.1,2.4c1.3,0.6,2.9,0.8,4.9,0.8c2.9,0,5.3-0.9,7.5-2.6c2.1-1.7,3.6-4.1,4.5-7
	c0.9-2.9,1.3-5.9,1.3-9.1v-33h18v64.5l-17.3,0l-0.8-9.2c-1.9,3.6-4.5,6.4-7.8,8.4C549,114.3,544.9,115.3,540.1,115.3L540.1,115.3z"
	/>
<path d="M593,113.1V48.6h17.3l0.9,9.1c1.4-2.6,3.2-4.8,5.4-6.6c2.2-1.8,4.6-3,7.1-3.7c2.5-0.7,5.1-1,7.6-1c6.5,0,11.7,1.9,15.5,5.7
	c1.8,1.9,3.2,4.3,4.1,7.2c1,2.9,1.5,6.5,1.5,10.9v42.9h-18V72.8c0-1.9-0.2-3.7-0.7-5.2c-0.4-1.5-1.2-2.9-2.3-4
	c-0.8-0.8-1.8-1.4-3-1.8c-1.2-0.4-2.6-0.6-4.2-0.6c-1.9,0-3.6,0.4-5.2,1.2c-1.6,0.8-3,2-4.1,3.6c-1.2,1.6-2.1,3.6-2.8,6
	c-0.7,2.4-1,5.1-1,8.2v33H593L593,113.1z"/>
<path d="M688.6,115.3c-3.6,0-6.9-0.6-10.2-1.8c-3.2-1.2-6.1-3.1-8.5-5.8c-2.5-2.7-4.4-6.1-5.9-10.3c-1.4-4.2-2.2-9.3-2.2-15.3
	c0-5,0.6-9.7,1.7-14.2c1.1-4.5,2.9-8.4,5.5-11.9c2.6-3.4,5.7-5.9,9.4-7.3c3.7-1.4,7.5-2.2,11.6-2.2c3.1,0,5.8,0.5,8.3,1.4
	c2.5,1,4.6,2.2,6.2,3.7c1.6,1.5,2.9,2.9,3.8,4.1V21h18v92.1h-16.9l-0.6-8.5c-1.5,2.5-3.3,4.6-5.2,6.1c-2,1.6-4.3,2.8-7,3.5
	C694,114.9,691.3,115.3,688.6,115.3L688.6,115.3z M694.4,101.3c3.3,0,6.1-1,8.4-3c2.3-2,3.8-4.6,4.6-7.9c0.8-3.2,1.2-6.4,1.2-9.5
	c0-4.8-0.7-8.8-2-11.9c-1.3-3.1-3.1-5.3-5.3-6.6c-2.2-1.3-4.5-1.9-6.8-1.9c-3.3,0-6.1,1-8.4,3.1c-2.3,2.1-3.8,4.7-4.6,7.8
	c-0.8,3.1-1.2,6.3-1.2,9.5c0,3.1,0.3,5.9,1,8.4c0.6,2.5,1.6,4.7,2.8,6.4c1.2,1.8,2.7,3.1,4.4,4.1
	C690.1,100.8,692.1,101.3,694.4,101.3L694.4,101.3z"/>
<path d="M758.1,115.3c-3.7,0-6.8-0.5-9.5-1.6c-2.7-1.1-4.9-2.5-6.6-4.2c-1.7-1.8-3-3.8-3.9-6.1c-0.8-2.3-1.2-4.8-1.2-7.4
	c0-5.6,1.2-10,3.7-13.1c2.5-3.1,5.6-5.2,9.2-6.4c3.6-1.1,7-1.9,10.2-2.4l17.6-2.7v-2.8c0-3-0.9-5.2-2.6-6.8
	c-1.7-1.5-4.3-2.3-7.7-2.3c-2.1,0-3.8,0.2-5.2,0.6c-1.4,0.4-2.6,1-3.5,1.7c-0.9,0.7-1.7,1.6-2.3,2.5c-0.6,1-1.2,2-1.6,3l-15.3-4.3
	c0.4-1.5,1-3,1.9-4.5c0.9-1.5,2.1-3.1,3.7-4.7c1.6-1.6,3.7-3.1,6.3-4.3c2.6-1.3,5.3-2.1,8-2.6c2.7-0.5,5.6-0.7,8.5-0.7
	c6.5,0,11.8,0.9,16,2.6c4.2,1.7,7.1,4.4,8.8,8c1.7,3.6,2.6,7.5,2.6,11.8v30.4c0,2.3,0.2,4.7,0.6,7.1c0.4,2.4,1,4.7,1.9,6.8h-16.5
	c-0.7-2.4-1.2-4.6-1.3-6.6c-2.6,2.5-5,4.4-7.3,5.6c-2.2,1.2-4.6,2.1-7,2.5C763.1,115.1,760.6,115.3,758.1,115.3L758.1,115.3z
	 M762.9,102.7c2.9,0,5.6-0.6,8-1.8c2.4-1.2,4.1-2.7,5.2-4.6c1-1.9,1.5-3.8,1.5-5.7v-7.5l-12.7,2c-2.2,0.4-4.2,0.9-5.9,1.8
	c-1.7,0.8-2.9,1.9-3.7,3.4c-0.7,1.5-1.1,3-1.1,4.7c0,1,0.2,2,0.5,2.9c0.3,0.9,0.8,1.7,1.6,2.4c0.7,0.7,1.6,1.3,2.7,1.7
	C760.1,102.5,761.4,102.7,762.9,102.7L762.9,102.7z"/>
<path d="M79.5,85.3c0,2.5-0.5,4.7-1.5,6.6c-1,1.9-2.9,3.3-5.6,4.3c-2.7,0.9-6.2,1.4-10.7,1.4h-21V72.8h21c2.7,0,5.5,0.2,8.3,0.7
	c2.8,0.5,5.1,1.7,6.8,3.5C78.6,79,79.5,81.7,79.5,85.3 M76.8,47.1c0,2.2-0.5,4.2-1.6,5.8c-1.1,1.7-2.7,2.8-5,3.5c-2.2,0.7-5,1-8.2,1
	H40.7l0-20.6h21.2c1.8,0,3.9,0.2,6.2,0.5c2.3,0.3,4.3,1.3,6.1,2.8C75.9,41.6,76.8,43.9,76.8,47.1 M95.2,53.3c1-2.7,1.6-5.5,1.6-8.6
	c0-4.6-0.9-8.4-2.7-11.5c-1.8-3-4.2-5.5-7.1-7.3c-2.9-1.8-6.2-3.1-10-3.8c-3.7-0.7-7.5-1.1-11.3-1.1H21l0,92.1h40.3
	c3.9,0,8.1-0.3,12.4-0.8c4.3-0.6,8.5-1.8,12.5-3.7c4-1.9,7.3-4.8,9.8-8.7c2.5-3.9,3.7-8.9,3.7-14.9c0-5-1.3-9.3-3.9-12.9
	c-2.6-3.5-6.3-6.2-11-8c2.2-1,4.3-2.4,6.1-4.2C92.7,58.2,94.1,56,95.2,53.3"/>
<polygon points="132.9,113.1 132.9,47.5 155,113.1 171.4,113.1 193.3,47.5 193.3,113.1 212.3,113.1 212.3,21.1 186,21.1 163.6,89.5 
	140.9,21.1 114,21.1 114,113.1 132.9,113.1 "/>
<polygon points="264.8,113.1 282.1,48.1 298.5,113.1 320.3,113.1 342.9,21.1 322.4,21.1 308.4,87.5 292.5,21.1 272.6,21.1 
	256.2,87.5 242.5,21.1 221.5,21.1 242.9,113.1 264.8,113.1 "/>
<polygon points="857.2,113.1 857.2,48.6 875.3,48.6 875.3,113.1 857.2,113.1 "/>
<path d="M918.7,115.3c-5.8,0-10.7-0.9-14.9-2.7c-4.2-1.8-7.6-4.3-10.3-7.4c-2.7-3.1-4.7-6.8-5.9-10.9c-1.3-4.2-1.9-8.6-1.9-13.3
	c0-4.7,0.6-9.1,1.9-13.3c1.3-4.2,3.3-7.9,5.9-11c2.7-3.1,6.1-5.6,10.3-7.5c4.2-1.8,9.1-2.7,14.9-2.7c5.7,0,10.6,0.9,14.8,2.7
	c4.2,1.8,7.6,4.3,10.4,7.5c2.7,3.1,4.7,6.8,6.1,11c1.3,4.2,2,8.6,2,13.3c0,4.7-0.7,9.1-2,13.3c-1.3,4.2-3.3,7.8-6.1,10.9
	c-2.7,3.1-6.2,5.6-10.4,7.4C929.4,114.4,924.4,115.3,918.7,115.3L918.7,115.3z M918.7,101c3.4,0,6.4-1,8.7-3c2.4-2,4-4.6,4.9-7.7
	c0.9-3.1,1.3-6.2,1.3-9.3c0-4.5-0.8-8.4-2.3-11.7c-1.5-3.3-3.4-5.5-5.7-6.7c-2.3-1.2-4.6-1.8-7-1.8c-2.4,0-4.5,0.5-6.3,1.4
	c-1.9,1-3.4,2.3-4.7,4.1c-1.3,1.8-2.3,3.9-2.9,6.4c-0.7,2.5-1,5.3-1,8.3c0,3.1,0.3,5.8,1,8.3c0.7,2.5,1.7,4.6,2.9,6.3
	c1.3,1.7,2.8,3.1,4.7,4C914.3,100.5,916.4,101,918.7,101L918.7,101z"/>
<path d="M961.6,113.1V48.6h17.3l0.9,9.1c1.4-2.6,3.2-4.8,5.4-6.6c2.2-1.8,4.6-3,7.1-3.7c2.5-0.7,5.1-1,7.6-1
	c6.5,0,11.7,1.9,15.5,5.7c1.8,1.9,3.2,4.3,4.1,7.2c1,2.9,1.4,6.5,1.4,10.9v42.9h-18V72.8c0-1.9-0.2-3.7-0.7-5.2
	c-0.4-1.5-1.2-2.9-2.3-4c-0.8-0.8-1.8-1.4-3-1.8c-1.2-0.4-2.6-0.6-4.2-0.6c-1.9,0-3.6,0.4-5.2,1.2c-1.6,0.8-3,2-4.1,3.6
	c-1.2,1.6-2.1,3.6-2.8,6c-0.7,2.4-1,5.1-1,8.2v33H961.6L961.6,113.1z"/>
<polygon points="857.2,36.9 857.2,21 875.3,21 875.3,36.9 857.2,36.9 "/>
<g>
	<polygon class="st0" points="27,206.3 27,175.1 64.1,175.1 64.1,206.3 70.1,206.3 70.1,142.6 64.1,142.6 64.1,169.8 27,169.8 
		27,142.6 21,142.6 21,206.3 27,206.3 	"/>
	<path class="st0" d="M120.7,183.6c0-0.3,0-0.7,0-1.2c0-0.5,0-1.1,0-1.8c0-2.7-0.4-5.3-1.1-7.8c-0.7-2.5-1.9-4.7-3.5-6.5
		c-1.6-1.9-3.6-3.4-6-4.5c-2.5-1.1-5.4-1.7-8.8-1.7c-3.4,0-6.4,0.6-9,1.9c-2.6,1.3-4.7,3-6.4,5.1c-1.7,2.2-3,4.7-3.9,7.6
		c-0.9,2.9-1.3,6-1.3,9.3c0,3.4,0.4,6.6,1.3,9.5c0.8,2.9,2.1,5.4,3.8,7.5c1.7,2.1,3.8,3.8,6.3,5c2.5,1.2,5.4,1.8,8.8,1.8
		c2.9,0,5.4-0.4,7.7-1.2c2.3-0.8,4.3-2,6-3.7c1.2-1.1,2.2-2.4,3.1-3.8c0.9-1.4,1.6-3,2.1-4.7l-5.1-1.9c-0.6,1.7-1.2,3.1-1.9,4.2
		c-0.7,1.2-1.4,2.1-2.3,2.9c-1.1,1-2.5,1.9-4.1,2.5c-1.6,0.6-3.5,0.9-5.6,0.9c-2.4,0-4.5-0.5-6.2-1.4c-1.8-0.9-3.2-2.2-4.4-3.8
		c-1.2-1.6-2.1-3.5-2.6-5.8c-0.6-2.2-0.9-4.6-1-7.3h34.1C120.7,184.6,120.7,184.1,120.7,183.6L120.7,183.6z M115,180.7H86.6
		c0.1-2,0.5-3.9,1.1-5.8c0.6-1.9,1.5-3.6,2.7-5.2c1.2-1.5,2.7-2.7,4.5-3.7c1.8-0.9,3.9-1.4,6.3-1.4c2.4,0,4.5,0.4,6.3,1.3
		c1.7,0.9,3.2,2.1,4.3,3.5c1.1,1.5,1.9,3.2,2.5,5.1C114.7,176.5,115,178.6,115,180.7L115,180.7z"/>
	<path class="st0" d="M136.7,206.3v-22.9c0-3.2,0.3-6,0.9-8.2c0.6-2.2,1.5-4,2.5-5.4c1.1-1.4,2.3-2.4,3.6-3c1.3-0.6,2.8-0.9,4.2-0.9
		c2,0,3.4,0.2,4.2,0.5l0.6-4.7c-1.3-0.4-2.9-0.5-4.8-0.5c-1,0-2.2,0.2-3.4,0.5c-1.3,0.4-2.6,1.2-4,2.5c-1.4,1.3-2.7,3.1-3.8,5.3
		v-7.8h-5.5v44.6H136.7L136.7,206.3z"/>
	<path class="st0" d="M201.4,183.5c0-3.4-0.4-6.5-1.1-9.3c-0.7-2.8-1.9-5.3-3.4-7.4c-1.5-2.1-3.4-3.7-5.7-4.8
		c-2.3-1.2-5-1.7-8.1-1.7c-1.3,0-2.9,0.2-4.6,0.5c-1.8,0.4-3.7,1.2-5.6,2.5c-2,1.3-3.7,3.2-5.2,5.7v-26.4h-5.5v63.7h5.5V200
		c1,1.5,2.2,2.9,3.6,4.1c1.4,1.2,3,2.2,4.8,2.8c1.8,0.6,3.8,0.9,5.9,0.9c3.4,0,6.4-0.6,8.9-1.9c2.5-1.3,4.5-3,6.1-5.2
		c1.6-2.2,2.8-4.8,3.5-7.7C201,190,201.4,186.8,201.4,183.5L201.4,183.5z M195.6,184.1c0,3.3-0.3,6.1-1,8.5
		c-0.7,2.4-1.6,4.4-2.8,5.9c-1.2,1.5-2.7,2.7-4.5,3.4c-1.8,0.7-3.7,1.1-5.9,1.1c-2.5,0-4.6-0.5-6.4-1.6c-1.8-1-3.2-2.4-4.4-4.2
		c-1.1-1.7-1.9-3.7-2.5-5.9c-0.5-2.2-0.8-4.5-0.8-6.9c0-2.4,0.3-4.8,0.8-7.1c0.5-2.3,1.4-4.4,2.5-6.3c1.2-1.9,2.7-3.4,4.5-4.5
		c1.9-1.1,4.1-1.7,6.8-1.7c2.5,0,4.6,0.5,6.3,1.4c1.7,0.9,3.1,2.2,4.2,3.9c1.1,1.7,1.9,3.7,2.4,6.1
		C195.4,178.6,195.6,181.3,195.6,184.1L195.6,184.1z"/>
	<path class="st0" d="M248.5,183.6c0-0.3,0-0.7,0-1.2c0-0.5,0-1.1,0-1.8c0-2.7-0.4-5.3-1.1-7.8c-0.8-2.5-1.9-4.7-3.5-6.5
		c-1.6-1.9-3.6-3.4-6-4.5c-2.5-1.1-5.4-1.7-8.8-1.7c-3.4,0-6.4,0.6-9,1.9c-2.6,1.3-4.7,3-6.4,5.1c-1.7,2.2-3,4.7-3.8,7.6
		c-0.9,2.9-1.3,6-1.3,9.3c0,3.4,0.4,6.6,1.3,9.5c0.8,2.9,2.1,5.4,3.8,7.5c1.7,2.1,3.8,3.8,6.3,5c2.5,1.2,5.4,1.8,8.8,1.8
		c2.9,0,5.4-0.4,7.7-1.2c2.3-0.8,4.3-2,6-3.7c1.2-1.1,2.2-2.4,3.1-3.8c0.9-1.4,1.6-3,2.1-4.7l-5.1-1.9c-0.6,1.7-1.2,3.1-1.9,4.2
		c-0.7,1.2-1.4,2.1-2.3,2.9c-1.1,1-2.5,1.9-4.1,2.5c-1.6,0.6-3.5,0.9-5.6,0.9c-2.4,0-4.5-0.5-6.2-1.4c-1.8-0.9-3.2-2.2-4.4-3.8
		c-1.2-1.6-2-3.5-2.6-5.8c-0.6-2.2-0.9-4.6-1-7.3h34.1C248.5,184.6,248.5,184.1,248.5,183.6L248.5,183.6z M242.8,180.7h-28.4
		c0.1-2,0.5-3.9,1.1-5.8c0.6-1.9,1.5-3.6,2.7-5.2c1.2-1.5,2.7-2.7,4.5-3.7c1.8-0.9,3.9-1.4,6.3-1.4c2.4,0,4.5,0.4,6.3,1.3
		c1.7,0.9,3.2,2.1,4.3,3.5c1.1,1.5,1.9,3.2,2.5,5.1C242.5,176.5,242.8,178.6,242.8,180.7L242.8,180.7z"/>
	<path class="st0" d="M264.5,206.3l0-22.9c0-3.2,0.3-6,0.9-8.2c0.6-2.2,1.5-4,2.5-5.4c1.1-1.4,2.3-2.4,3.6-3
		c1.3-0.6,2.8-0.9,4.2-0.9c2,0,3.4,0.2,4.2,0.5l0.6-4.7c-1.3-0.4-2.9-0.5-4.8-0.5c-1,0-2.2,0.2-3.4,0.5c-1.3,0.4-2.6,1.2-4,2.5
		c-1.4,1.3-2.7,3.1-3.8,5.3v-7.8H259v44.6H264.5L264.5,206.3z"/>
	<path class="st0" d="M310.9,206.6l-0.4-4.8c-1.4,0.2-3,0.4-4.9,0.4c-0.9,0-1.7-0.1-2.3-0.3c-0.7-0.2-1.2-0.5-1.7-1
		c-0.4-0.5-0.8-1.1-1-1.9c-0.2-0.8-0.4-1.8-0.4-3.1v-29.7h9.8v-4.5h-9.8V149h-5.5l0,12.7h-6.2v4.5h6.2v31.2c0,3.2,0.7,5.7,2.2,7.3
		c1.4,1.6,3.7,2.5,6.7,2.5C305.7,207.1,308.1,206.9,310.9,206.6L310.9,206.6L310.9,206.6z"/>
	<path class="st0" d="M392.1,174.4c0-5.3-0.7-10-2.1-14.2c-1.4-4.1-3.3-7.6-5.9-10.5c-2.5-2.8-5.6-5-9.2-6.5
		c-3.6-1.5-7.2-2.2-11.7-2.2c-4.5,0-9.1,0.7-12.7,2.2c-3.6,1.5-6.7,3.6-9.2,6.5c-2.5,2.8-4.5,6.3-5.9,10.5
		c-1.4,4.1-2.1,8.9-2.1,14.2c0,5.3,0.7,10,2.1,14.1c1.4,4.1,3.3,7.6,5.9,10.5c2.5,2.8,5.6,5,9.2,6.5c3.6,1.5,7.7,2.2,12.2,2.2
		c2.4,0,4.7-0.2,6.8-0.6c2.1-0.4,4.1-1,6-1.8l6.7,10.7l4.7-3l-6.6-10.5c3.8-2.8,6.7-6.5,8.8-11.3
		C391.1,186.5,392.1,180.9,392.1,174.4L392.1,174.4z M385.6,174.4c0,4.8-0.7,9.2-2.2,13.2c-1.4,4-3.6,7.3-6.5,9.8l-7.6-12.1l-4.7,3
		l7.7,12.2c-1.4,0.7-2.9,1.2-4.5,1.5c-1.6,0.4-3.3,0.6-5.2,0.6c-3.8,0-7.1-0.7-9.9-2.2c-2.9-1.5-5.2-3.5-7.2-6
		c-1.9-2.5-3.4-5.5-4.3-9c-1-3.4-1.5-7.1-1.5-11s0.5-7.5,1.5-11c1-3.4,2.4-6.4,4.3-9c1.9-2.5,4.3-4.5,7.2-6c2.9-1.5,6.2-2.2,9.9-2.2
		c3.8,0,7.1,0.7,10,2.2c2.9,1.5,5.3,3.5,7.2,6c1.9,2.5,3.4,5.5,4.4,9C385.2,166.9,385.6,170.5,385.6,174.4L385.6,174.4z"/>
	<path class="st0" d="M423.9,206.8c2.1-0.7,3.8-1.7,5.2-3.1c1.4-1.4,2.7-3.1,4-5.3v7.8h5.5v-44.6h-5.5V184c0,2.1-0.3,4.3-0.8,6.6
		c-0.5,2.2-1.4,4.3-2.5,6.1c-1.2,1.8-2.6,3.4-4.4,4.5c-1.8,1.2-4,1.8-6.5,1.8c-2,0-3.7-0.3-5.1-0.9c-1.4-0.6-2.5-1.5-3.3-2.6
		c-0.8-1.1-1.5-2.3-1.8-3.8c-0.4-1.4-0.6-3-0.6-4.6v-29.5h-5.5v31c0,2.8,0.5,5.2,1.4,7.2c0.9,1.9,2.1,3.5,3.5,4.7
		c1.4,1.2,3,2,4.8,2.5c1.8,0.5,3.5,0.8,5.2,0.8C419.7,207.8,421.8,207.5,423.9,206.8L423.9,206.8z"/>
	<path class="st0" d="M486.1,206.3c-0.2-0.9-0.5-2.1-0.8-3.4c-0.3-1.4-0.4-2.7-0.4-4.1V174c0-2.5-0.5-4.9-1.6-7.1
		c-1-2.2-2.8-3.8-5.4-5c-2.5-1.2-5.7-1.8-9.4-1.8c-2.6,0-5.1,0.4-7.5,1.2c-2.4,0.8-4.4,2.1-6.1,4c-1.7,1.9-2.9,4.2-3.7,6.9l4.9,1.2
		c0.5-1.4,1-2.7,1.7-3.8c0.7-1.1,1.5-2,2.5-2.8c1-0.7,2.1-1.3,3.5-1.7c1.3-0.4,2.9-0.6,4.7-0.6c2,0,3.7,0.2,5.1,0.7
		c1.4,0.5,2.5,1.1,3.4,2c0.9,0.9,1.5,1.9,1.9,3.1c0.4,1.2,0.6,2.5,0.6,3.9v3.6l-14.4,2.1c-2.4,0.4-4.8,1-7.2,2
		c-2.4,0.9-4.3,2.5-5.7,4.7c-1.4,2.2-2.2,5-2.2,8.4c0,1.7,0.3,3.3,0.9,4.8c0.6,1.5,1.4,2.8,2.6,4c1.1,1.2,2.5,2.1,4.2,2.8
		c1.7,0.7,3.6,1,5.9,1c1.6,0,3.3-0.1,5-0.3c1.7-0.2,3.5-0.9,5.5-2.1c1.9-1.2,3.9-3,5.8-5.5c0,1.7,0.1,3.2,0.3,4.4
		c0.1,0.4,0.2,0.7,0.3,1c0.1,0.3,0.2,0.6,0.3,0.9H486.1L486.1,206.3z M479.4,190c0,2.3-0.4,4.2-1.3,5.9c-0.9,1.7-2,3-3.5,4.1
		c-1.4,1.1-3,1.9-4.8,2.4c-1.8,0.5-3.6,0.8-5.3,0.8c-1.2,0-2.4-0.2-3.5-0.5c-1.1-0.3-2-0.8-2.8-1.4c-0.8-0.7-1.4-1.5-1.9-2.6
		c-0.5-1.1-0.7-2.4-0.7-3.9c0-1.5,0.2-2.8,0.7-4c0.5-1.1,1.1-2.1,1.9-2.9c0.8-0.8,1.8-1.4,3-1.9c1.1-0.5,2.4-0.8,3.7-1l14.6-2.3V190
		L479.4,190z"/>
	<path class="st0" d="M504.1,206.3v-22.3c0-2.1,0.3-4.3,0.8-6.6c0.5-2.3,1.4-4.3,2.5-6.1c1.1-1.8,2.6-3.3,4.4-4.5
		c1.8-1.2,4-1.7,6.5-1.7c2,0,3.9,0.4,5.6,1.2c1.7,0.8,3,2.1,3.9,3.9c0.9,1.8,1.3,4,1.3,6.6v29.6h5.5v-31c0-2.8-0.6-5.4-1.7-7.8
		c-1.1-2.4-2.9-4.2-5.3-5.4c-2.4-1.3-5-1.9-7.9-1.9c-2.3,0-4.5,0.3-6.5,1c-2,0.7-3.7,1.7-5.1,3c-1.4,1.3-2.7,3.1-3.9,5.2v-7.8h-5.5
		l0,44.6H504.1L504.1,206.3z"/>
	<path class="st0" d="M583.4,206.3v-63.7h-5.5v25.5c-1-1.5-2.2-2.9-3.7-4.1c-1.5-1.3-3.1-2.2-4.9-2.8c-1.8-0.6-3.7-1-5.6-1
		c-3.4,0-6.4,0.6-8.9,1.9c-2.5,1.3-4.5,3-6.1,5.3c-1.6,2.2-2.8,4.8-3.5,7.8c-0.7,3-1.1,6.2-1.1,9.6c0,3.4,0.4,6.5,1.1,9.3
		c0.7,2.8,1.9,5.2,3.4,7.3c1.5,2,3.4,3.6,5.7,4.8c2.3,1.1,5,1.7,8.1,1.7c1.3,0,2.8-0.2,4.7-0.5c1.8-0.3,3.7-1.2,5.7-2.5
		c1.9-1.3,3.7-3.1,5.1-5.6v7H583.4L583.4,206.3z M578.1,183.7c0,2.4-0.3,4.8-0.8,7.1c-0.5,2.3-1.4,4.4-2.5,6.2
		c-1.2,1.8-2.7,3.3-4.5,4.4c-1.8,1.1-4.1,1.7-6.7,1.7c-2.5,0-4.6-0.5-6.4-1.4c-1.7-0.9-3.2-2.2-4.2-3.9c-1.1-1.7-1.9-3.7-2.4-6
		c-0.5-2.3-0.7-4.9-0.7-7.7c0-3.3,0.3-6.2,1-8.6c0.7-2.4,1.6-4.4,2.8-6c1.2-1.6,2.7-2.8,4.4-3.5c1.7-0.8,3.6-1.2,5.7-1.2
		c2.6,0,4.8,0.5,6.6,1.6c1.8,1.1,3.3,2.5,4.4,4.2s2,3.8,2.5,6C577.8,179,578.1,181.3,578.1,183.7L578.1,183.7z"/>
	<path class="st0" d="M616.7,206.6l-0.4-4.8c-1.4,0.2-3,0.4-4.9,0.4c-0.9,0-1.7-0.1-2.3-0.3c-0.7-0.2-1.2-0.5-1.7-1
		c-0.4-0.5-0.8-1.1-1-1.9c-0.2-0.8-0.4-1.8-0.4-3.1v-29.7h9.8v-4.5H606V149h-5.5v12.7h-6.2v4.5h6.2v31.2c0,3.2,0.7,5.7,2.2,7.3
		c1.4,1.6,3.7,2.5,6.7,2.5C611.4,207.1,613.9,206.9,616.7,206.6L616.7,206.6L616.7,206.6z"/>
</g>
<polygon points="380.7,113.1 380.7,21 445.1,21 445.1,37.3 400.1,37.3 400.1,58.6 436.5,58.6 436.5,75 400.1,75 400.1,113.1 
	380.7,113.1 "/>
</svg>
