<?xml version="1.0" encoding="utf-8"?>
<!-- Generator: Adobe Illustrator 23.0.4, SVG Export Plug-In . SVG Version: 6.00 Build 0)  -->
<svg version="1.1" id="Layer_1" xmlns="http://www.w3.org/2000/svg" xmlns:xlink="http://www.w3.org/1999/xlink" x="0px" y="0px"
	 viewBox="0 0 591.8 165.3" style="enable-background:new 0 0 591.8 165.3;" xml:space="preserve">
<style type="text/css">
	.st0{fill:#36374B;}
</style>
<g>
	<g>
		<path class="st0" d="M22.3,115.8c0,9.6,0.5,10.5,7.4,10.9v3H6.4v-3c6.6-0.4,7.5-1.4,7.5-10.3v-11.8c0-6.9-0.2-11.4-0.5-12.9
			c-0.7-3.2-2-3.7-7.1-3.7v-2.8l14.2-3.4l1.1,8.8h0.4c4.4-5.5,10.7-8.8,17.8-8.8c5.4,0,10.2,2,12.6,5c2,2.8,2.8,6.7,2.8,14.2v14.8
			c0,9.6,0.7,10.5,7.2,10.9v3h-23v-3c6.7-0.4,7.4-1.5,7.4-10.3v-11.7c0-13.4-2.8-18.1-10.1-18.1c-5.2,0-10,3-12.5,7.8
			c-1.2,2.4-1.6,3.9-1.6,9.5V115.8z"/>
		<path class="st0" d="M95.3,99.6V96c0-7.4-2.9-10.8-9.2-10.8c-4.1,0-5.2,1.2-6.7,5.8c-1.3,3.4-2.3,4.3-4.6,4.3
			c-2.8,0-4.4-1.6-4.4-4.4c0-5.7,6.3-9,17.4-9c11.9,0,16.3,3.7,16.3,13.9v19.9c0,6.8,1.3,10.1,4,10.1c1.6,0,3.3-0.2,4.4-2l1.2,2.1
			c-1.4,2.8-5.7,4.8-9.9,4.8c-5.2,0-7.7-3.5-7.7-9.5h-0.4c-3.1,5.8-8.9,9.4-15.5,9.4c-7.4,0-12-4.2-12-10.5
			c0-5.7,3.6-10.2,14.4-14.8L95.3,99.6z M95.3,103.4c-13.6,5.2-18.2,9.9-18.2,15.1c0,3.9,2.8,6.7,7.1,6.7c6.1,0,11.1-6.7,11.1-14.7
			V103.4z"/>
		<path class="st0" d="M136.4,130.6h-3.3l-11.5-36.9c-2-6.6-3.6-7.9-8.8-7.9v-3.1h23.5v3.1c-4.6,0-6.3,1-6.3,3.6
			c0,1.2,0.4,2.8,1,5.1l6,21.2h0.4l13.1-32.9h2.8l11.8,32.9h0.4l5.3-14.4c2.9-7.9,3.6-10.2,3.6-12.3c0-2.6-1.2-3.2-6-3.2v-3.1h17.8
			v3.1c-3.5,0-4.7,1.6-8.4,10.8l-13.8,34h-3.3l-10.8-32.8h-0.4L136.4,130.6z"/>
		<path class="st0" d="M205.3,115.9c0,9,1.1,10.5,7.9,10.7v3.1h-24.5v-3.1c7-0.4,8.3-2,8.3-10.1V78.2c0-6.4-0.2-10.9-0.5-12.4
			c-0.6-2.8-2.3-3.5-8-3.5v-3l16.8-3.3V115.9z"/>
	</g>
	<g>
		<path class="st0" d="M412.7,99.6v-3.6c0-7.4-2.9-10.8-9.2-10.8c-4.1,0-5.2,1.2-6.7,5.8c-1.3,3.4-2.3,4.3-4.6,4.3
			c-2.8,0-4.4-1.6-4.4-4.4c0-5.7,6.3-9,17.4-9c11.9,0,16.3,3.7,16.3,13.9v19.9c0,6.8,1.3,10.1,4,10.1c1.6,0,3.3-0.2,4.4-2l1.2,2.1
			c-1.4,2.8-5.7,4.8-9.9,4.8c-5.2,0-7.7-3.5-7.7-9.5H413c-3.1,5.8-8.9,9.4-15.5,9.4c-7.4,0-12-4.2-12-10.5c0-5.7,3.6-10.2,14.4-14.8
			L412.7,99.6z M412.7,103.4c-13.6,5.2-18.2,9.9-18.2,15.1c0,3.9,2.8,6.7,7.1,6.7c6.1,0,11.1-6.7,11.1-14.7V103.4z"/>
		<path class="st0" d="M450.1,115.7c0,9.6,0.5,10.5,7.4,10.9v3h-23.3v-3c6.6-0.4,7.5-1.4,7.5-10.3v-11.8c0-6.9-0.2-11.4-0.5-12.9
			c-0.7-3.2-2-3.7-7.1-3.7v-2.8l14.2-3.4l1.1,8.8h0.4c4.4-5.5,10.7-8.8,17.8-8.8c5.4,0,10.2,2,12.6,5c2,2.8,2.8,6.7,2.8,14.2v14.8
			c0,9.6,0.7,10.5,7.2,10.9v3h-23v-3c6.7-0.4,7.4-1.5,7.4-10.3v-11.7c0-13.4-2.8-18.1-10.1-18.1c-5.2,0-10,3-12.5,7.8
			c-1.2,2.4-1.6,3.9-1.6,9.5V115.7z"/>
		<path class="st0" d="M494,84h10v-6.4c0-13.6,7.5-21.7,20.7-21.7c7.3,0,12.4,2.5,12.4,6c0,2.4-1.7,4.2-3.9,4.2
			c-1.4,0-2.8-0.8-5.4-2.9c-2.9-2.5-4.2-3-6.4-3c-3.6,0-6.1,1.9-7.6,5.4c-1.1,2.3-1.4,5.5-1.4,11.5V84h14.3v4.2h-14.3v27.2
			c0,8.8,1.8,11,9.2,11.2v3.1h-25.2v-3.1c6.7-0.4,7.6-1.5,7.6-10.5V88.2h-10V84z"/>
		<path class="st0" d="M570.8,122.2h-0.4c-4.3,6-8.8,8.3-15.3,8.3c-13.4,0-23.1-10.2-23.1-24.5c0-14,9.8-24.3,23.1-24.3
			c5.6,0,9.9,1.9,14,6v-9.1c0-6.7-0.2-11.5-0.5-13.1c-0.6-2.6-3-3.6-9.1-3.6v-2.7l18.2-3.4v51.2c0,8.2,0.1,13.5,0.6,15.7
			c0.7,2.8,1.7,3.6,7.2,3.6v3l-14.7,1V122.2z M569,102.6c0-6.2-0.5-8.8-2.4-11.2c-2.7-3.6-7.4-5.4-11.5-5.4
			c-8.4,0-13.1,7.6-13.1,19.6c0,12.5,4.5,20.7,13.1,20.7c4.2,0,9.2-2,11.5-5.6c1.7-2.6,2.3-5.9,2.3-12.3V102.6z"/>
	</g>
	<g>
		<path class="st0" d="M299.6,73.8c19.4,0,35.2-15.8,35.2-35.2S319,3.4,299.6,3.4c-19.4,0-35.2,15.8-35.2,35.2
			S280.2,73.8,299.6,73.8z M299.6,19.9c10.3,0,18.7,8.4,18.7,18.7s-8.4,18.7-18.7,18.7c-10.3,0-18.7-8.4-18.7-18.7
			S289.3,19.9,299.6,19.9z"/>
		<path class="st0" d="M336.9,126.5l-7.1-21h0L324.2,89H309c-0.6,0-1.1-0.5-1.1-1.1v-0.5c0-3.7,3-6.6,6.6-6.6h0.7
			c0.5,0,0.9-0.4,0.9-0.9V77c0-0.5-0.4-0.9-0.9-0.9h-16.8h-0.9H284c-0.5,0-0.9,0.4-0.9,0.9v2.8c0,0.5,0.4,0.9,0.9,0.9h0.7
			c3.7,0,6.6,3,6.6,6.6v0.5c0,0.6-0.5,1.1-1.1,1.1h-15.8l-5.6,16.5h0l-7.1,21c-0.1,0.2-0.1,0.4,0,0.6l1.8,5c0.9,2.4,3.1,4,5.7,4h4.1
			h0.6h4.8c2.6,0,4.8-1.6,5.7-4l1.8-5c0.1-0.2,0.1-0.4,0-0.6l-7.1-21h12.2v43.8c0,3.7-3,6.6-6.6,6.6H284c-0.5,0-0.9,0.4-0.9,0.9v2.8
			c0,0.5,0.4,0.9,0.9,0.9h13.5h0.9h16.8c0.5,0,0.9-0.4,0.9-0.9v-2.8c0-0.5-0.4-0.9-0.9-0.9h-0.7c-3.7,0-6.6-3-6.6-6.6v-43.8h11.7
			l-7.1,21c-0.1,0.2-0.1,0.4,0,0.6l1.8,5c0.9,2.4,3.1,4,5.7,4h4.8h0.6h4.1c2.6,0,4.8-1.6,5.7-4l1.8-5
			C337,126.9,337,126.7,336.9,126.5z M284.2,126.4c0.1,0.2-0.1,0.4-0.3,0.4H274h-0.6h-9.2c-0.2,0-0.4-0.2-0.3-0.4l7.1-20.9h6.1
			L284.2,126.4z M334.5,126.8h-9.2h-0.6h-9.8c-0.2,0-0.4-0.2-0.3-0.4l7.1-20.9h6.1l7.1,20.9C334.9,126.6,334.7,126.8,334.5,126.8z"
			/>
	</g>
</g>
</svg>
