<?xml version="1.0" encoding="utf-8"?>
<!-- Generator: Adobe Illustrator 24.2.0, SVG Export Plug-In . SVG Version: 6.00 Build 0)  -->
<svg version="1.1" id="Layer_1" xmlns="http://www.w3.org/2000/svg" xmlns:xlink="http://www.w3.org/1999/xlink" x="0px" y="0px"
	 viewBox="0 0 862.8297 209.0875" style="enable-background:new 0 0 862.8297 209.0875;" xml:space="preserve" width="15" height="10">
<style type="text/css">
	.st0{fill:none;}
</style>
<g>
	<g>
		<rect x="3.3942" y="4.2393" class="st0" width="855.6597" height="201.3988"/>
		<path d="M860.5749,207.1591H2V2.8451h858.5749V207.1591z M4.9152,204.2439H857.533V5.7603H4.9152V204.2439z"/>
	</g>
	<g>
		<path d="M649.2899,116.2825c-1.7745,2.4082-4.4361,3.5489-7.8583,3.5489c-3.4221,0-6.2106-1.2675-8.1118-3.9291
			c-1.7745-2.4082-2.6616-5.7036-2.6616-9.8862c0-4.3093,0.8873-7.7315,2.5349-10.2664c1.9012-2.9152,4.6896-4.4361,8.3652-4.4361
			c2.9152,0,5.1965,0.8872,6.8443,2.6617c1.1407,1.1407,1.9012,2.7884,2.5349,4.9431l2.9152-0.7605
			c-0.6337-2.9152-1.9012-5.1966-3.8024-6.7175c-2.1547-1.7744-4.9431-2.6617-8.492-2.6617c-4.3094,0-7.7314,1.5209-10.2664,4.4361
			c-2.5349,3.0419-3.8024,7.2245-3.8024,12.6746c0,5.8303,1.521,10.2664,4.6896,13.1815c2.4082,2.2814,5.45,3.4221,9.2524,3.4221
			c7.2245,0,11.5338-3.6756,13.1816-11.1536l-3.0419-0.507C651.0644,112.9871,650.3038,114.8883,649.2899,116.2825z"/>
		<rect x="667.668" y="89.5391" width="2.9151" height="32.0666"/>
		<polygon points="683.3845,92.2008 695.045,92.2008 695.045,121.7325 698.087,121.7325 698.087,92.2008 709.7476,92.2008
			709.7476,89.5391 683.3845,89.5391 		"/>
		<rect x="722.5488" y="89.5391" width="2.9151" height="32.0666"/>
		<polygon points="743.4619,106.6498 761.0795,106.6498 761.0795,103.9881 743.4619,103.9881 743.4619,92.2008 761.9668,92.2008
			761.9668,89.5391 740.42,89.5391 740.42,121.7325 762.7272,121.7325 762.7272,118.9441 743.4619,118.9441 		"/>
		<path d="M796.8218,107.537c-1.2675-1.521-3.4222-2.5349-6.2106-3.0419l-6.2106-1.2675c-2.1547-0.3802-3.6757-1.1407-4.6896-2.0279
			c-1.014-1.014-1.521-2.2814-1.521-3.9291c0-1.9012,0.6337-3.2954,1.9012-4.3094c1.3942-1.1407,3.4222-1.6477,6.0838-1.6477
			c2.9151,0,5.0698,0.6337,6.5908,2.0279c1.014,0.8872,1.9012,2.4082,2.6616,4.3094l2.7885-0.8872
			c-0.7604-2.5349-1.9012-4.4361-3.4222-5.7036c-2.0279-1.6477-4.8163-2.4082-8.6187-2.4082c-3.6757,0-6.464,0.8872-8.3652,2.5349
			c-1.7745,1.5209-2.7885,3.6756-2.7885,6.2105c0,4.6896,2.9152,7.6047,8.7455,8.7455l5.4501,1.014
			c2.1547,0.3802,3.6757,1.014,4.6896,2.0279c1.1407,1.014,1.6477,2.4082,1.6477,4.1826c0,4.0559-2.9152,6.2105-8.8722,6.2105
			c-3.2953,0-5.7036-0.8872-7.3513-2.6617c-0.8872-1.014-1.6476-2.5349-2.1547-4.5628l-2.9152,0.7605
			c0.7604,3.0419,2.0279,5.1966,3.6757,6.5908c2.0279,1.7744,5.0698,2.6617,8.8722,2.6617c4.0558,0,7.2245-0.8872,9.2524-2.6617
			c1.9012-1.5209,2.7884-3.6756,2.7884-6.464C798.8497,110.9591,798.0893,109.058,796.8218,107.537z"/>
		<path d="M123.4223,72.5552c-3.1686-2.2814-7.985-3.4221-14.1955-3.4221H86.0323v31.0527h23.1944
			c12.8013,0,19.2653-5.3233,19.2653-15.8432C128.3654,78.8925,126.7177,74.9634,123.4223,72.5552z M109.2268,97.5241H88.694V71.668
			h20.5328c5.7036,0,10.0129,1.014,12.6746,2.9152s3.9291,5.0698,3.9291,9.6327C125.8305,93.2148,120.3804,97.5241,109.2268,97.5241
			z"/>
		<path d="M151.5598,84.7228c0-9.3792-2.5349-16.9839-7.3513-22.5607c-6.2105-7.2245-16.0967-10.7734-29.1515-10.7734h-51.332
			v107.3535H88.694v-40.8121H109.1l19.0118,40.6853l0.1267,0.1268h28.2643l-22.8142-45.2482
			C145.6028,107.4103,151.5598,97.7776,151.5598,84.7228z M152.1936,156.0806h-22.434l-19.0118-40.6853l-0.1267-0.1267H86.0323
			v40.8121H66.26V53.9236h48.7971c12.2943,0,21.5468,3.2954,27.2503,9.8862c4.4361,5.0698,6.7175,12.0408,6.7175,20.7863
			c0,12.5478-5.8303,21.42-17.7444,26.8701l-1.2675,0.507L152.1936,156.0806z"/>
		<path d="M235.9724,158.6155h25.2224V51.262h-25.2224V158.6155z M238.5073,53.9236h20.0258v102.157h-20.0258V53.9236z"/>
		<path d="M403.0232,95.2427l-17.4909-3.0419c-6.2105-1.1407-10.5199-2.6617-12.8013-4.6896
			c-1.9012-1.6477-2.7884-3.8024-2.7884-6.8443c0-3.6756,1.5209-6.464,4.6896-8.3652s7.3513-2.9152,12.8013-2.9152
			c6.8443,0,12.1676,1.5209,15.8432,4.5628c2.9151,2.4082,5.3233,6.3373,7.0978,11.6606l0.3802,1.2675l23.4479-7.0977
			l-0.3802-1.2675c-2.6617-8.9989-7.0978-15.8432-12.9281-20.5328c-7.6047-5.957-18.6316-8.9989-32.8271-8.9989
			c-12.5478,0-22.8142,2.6617-30.5457,7.8582c-8.6187,5.8303-12.9281,14.3223-12.9281,24.9689
			c0,9.8862,3.6756,17.7444,10.9001,23.3212c5.5768,4.1826,13.942,7.2245,24.8422,8.9989l12.6746,2.0279
			c5.3233,0.8872,9.3792,2.4082,12.0408,4.4361c2.4081,1.9012,3.6756,4.5628,3.6756,8.2385c0,7.985-6.2105,11.9141-19.0118,11.9141
			c-7.985,0-14.0688-1.9012-17.8711-5.8303c-2.7884-2.7884-4.9431-7.0977-6.2105-12.8013l-0.2535-1.2675l-24.5887,5.957
			l0.3802,1.2675c3.0419,12.1676,8.8722,20.913,17.2374,26.1096c7.478,4.8163,17.9979,7.2245,31.3062,7.2245
			c14.5757,0,25.8561-3.1686,33.8411-9.3792c7.6047-5.957,11.4071-14.1955,11.4071-24.4619c0-9.2524-2.6617-16.7304-8.1117-22.0537
			C421.7815,100.4393,413.7965,97.1439,403.0232,95.2427z M421.528,149.7433c-7.478,5.8303-18.2513,8.8722-32.1934,8.8722
			c-12.8013,0-22.8142-2.2814-29.912-6.8443c-7.478-4.6896-12.8013-12.5478-15.7164-23.3212l19.3921-4.6896
			c1.521,5.5768,3.6756,9.8862,6.5908,12.8013c4.3093,4.3094,11.0269,6.5908,19.6456,6.5908
			c14.3222,0,21.6735-4.9431,21.6735-14.5757c0-4.4361-1.521-7.8582-4.6896-10.2664c-3.0419-2.2814-7.478-4.0559-13.3083-4.9431
			l-12.6746-2.0279c-10.3932-1.6477-18.3781-4.5628-23.5747-8.492c-6.5908-4.9431-9.8861-12.1676-9.8861-21.1665
			c0-9.8862,3.8024-17.3641,11.7873-22.8142c7.2245-4.9431,16.9839-7.478,29.0247-7.478c13.5618,0,24.0817,2.7884,31.1794,8.492
			c5.1966,4.0559,9.1257,10.1396,11.6606,17.9979l-18.2514,5.5768c-1.9012-5.0698-4.3093-8.9989-7.478-11.6606
			c-4.1826-3.4221-10.0129-5.1966-17.4909-5.1966c-5.8303,0-10.5199,1.1407-14.0688,3.2954
			c-3.9291,2.4082-5.9571,6.0838-5.9571,10.6466c0,3.8024,1.2675,6.7175,3.6756,8.8722c2.7884,2.4082,7.3512,4.1826,14.0688,5.3233
			l17.4909,3.0419c10.2664,1.7744,17.6176,4.9431,22.0537,9.3792c4.8163,4.8163,7.2245,11.6606,7.2245,20.2793
			C432.0479,136.8152,428.499,144.2932,421.528,149.7433z"/>
		<path d="M541.8096,114.6348h51.8389V93.3415h-51.8389V72.5552h54.8809V51.262h-80.1033v107.3535h82.5114V137.449h-57.2891
			L541.8096,114.6348L541.8096,114.6348z M596.437,140.1106v15.97h-77.3148V53.9236h74.9067v15.97h-54.8809v26.1096h51.839v15.9699
			h-51.839v28.0108h57.289V140.1106z"/>
		<rect x="190.851" y="91.0601" width="3.0419" height="29.0247"/>
		<rect x="300.9929" y="91.0601" width="3.0419" height="29.0247"/>
		<rect x="475.9019" y="91.0601" width="3.0419" height="29.0247"/>
	</g>
</g>
</svg>
