<?xml version="1.0" encoding="utf-8"?>
<!-- Generator: Adobe Illustrator 24.2.0, SVG Export Plug-In . SVG Version: 6.00 Build 0)  -->
<svg version="1.1" id="Layer_1" xmlns="http://www.w3.org/2000/svg" xmlns:xlink="http://www.w3.org/1999/xlink" x="0px" y="0px"
	 viewBox="0 0 35.87475 35.87475" style="enable-background:new 0 0 35.87475 35.87475;" xml:space="preserve">
<style type="text/css">
	.st00{fill:none;}
</style>
<g>
	<circle class="st00" cx="17.86683" cy="17.86683" r="14"/>
	<path d="M18.69252,3.7726l1.97119-3.29541l0.95508,0.17969l0.63867,3.78711l-0.8125-0.15283l-0.12695-0.79834l-1.4668-0.27637
		l-0.41113,0.69678L18.69252,3.7726z M20.18324,2.65199l1.02734,0.19385l-0.22461-1.6123L20.18324,2.65199z"/>
	<path d="M26.21449,3.52406l-0.7793-0.15967c0.08789-0.4834-0.06348-0.81396-0.45117-0.99072
		c-0.27051-0.12305-0.52344-0.11279-0.75781,0.03174c-0.22461,0.13672-0.42188,0.3916-0.5918,0.76367
		c-0.33105,0.72656-0.22168,1.21533,0.3291,1.46631c0.44336,0.20166,0.81348,0.06787,1.10938-0.40234l0.67676,0.41846
		c-0.25,0.33398-0.51758,0.55615-0.80469,0.66699c-0.37793,0.14746-0.79688,0.11621-1.25781-0.09375
		c-0.42773-0.19482-0.71973-0.46973-0.87793-0.82568c-0.19922-0.4502-0.16406-0.97363,0.10742-1.56934
		c0.24707-0.54248,0.5752-0.90527,0.9834-1.08838c0.41992-0.18848,0.87891-0.16895,1.37891,0.05859
		c0.4873,0.22217,0.78906,0.5376,0.90527,0.94629C26.24574,2.96742,26.25551,3.2267,26.21449,3.52406z"/>
	<path d="M26.13539,6.56117l1.81738-2.34131l-0.95801-0.74463l0.3916-0.50488l2.5332,1.96631l-0.3916,0.50537L28.56898,4.6974
		L26.7516,7.0392L26.13539,6.56117z"/>
	<path d="M27.84926,8.04311l2.6377-2.45508l0.53125,0.57031l-2.6377,2.45557L27.84926,8.04311z"/>
	<path d="M29.28285,9.74477l2.32031-3.02197l0.45606,0.68896L30.1725,9.75697l2.89649-0.82227l0.42969,0.64795l-3.6875,0.95947
		L29.28285,9.74477z"/>
	<path d="M30.29262,11.15883l3.83985-0.05127l0.34863,0.90625l-2.88867,2.53125l-0.2959-0.77148l0.6123-0.52734l-0.53418-1.39258
		l-0.80957,0.01562L30.29262,11.15883z M32.02895,11.83998l0.375,0.97607l1.25391-1.03857L32.02895,11.83998z"/>
	<path d="M31.6266,15.24086l2.92676-0.4707l-0.19238-1.19824l0.63086-0.10156l0.50977,3.16601l-0.63184,0.10156l-0.19238-1.19824
		l-2.92676,0.47119L31.6266,15.24086z"/>
	<path d="M31.91957,17.45619l3.59668,0.22266l-0.16406,2.6626l-0.63867-0.03906l0.11719-1.88525l-0.80664-0.0498l-0.10938,1.77979
		l-0.64062-0.03906l0.10938-1.78027l-0.87305-0.05371l-0.12207,1.96582l-0.6377-0.03906L31.91957,17.45619z"/>
	<path d="M30.6139,23.66859l0.26074-0.59473l0.77051,1.96973l1.20117-2.74512l0.42285,0.18457l-1.2002,2.74609l1.96973-0.77148
		l-0.25977,0.59473l-2.27442,0.89062L30.6139,23.66859z"/>
	<path d="M28.90297,26.57582l2.6123,2.48242l-1.83789,1.93359l-0.46387-0.44043l1.30078-1.36914l-0.58496-0.55566l-1.22852,1.29199
		l-0.46484-0.44238l1.22754-1.29199l-0.63379-0.60352l-1.35742,1.42871l-0.46387-0.44141L28.90297,26.57582z"/>
	<path d="M26.74476,28.79457l1.96387,3.02246l-0.64941,0.42188l-2.58398-1.22168l1.3252,2.03906l-0.61426,0.39941l-1.96387-3.02149
		l0.64941-0.42188l2.58398,1.22168l-1.3252-2.04004L26.74476,28.79457z"/>
	<path d="M21.59535,34.09438l0.63672-0.40039c0.12109,0.16797,0.25293,0.28418,0.39551,0.35059
		c0.1748,0.08105,0.375,0.08301,0.60254,0.00684c0.28516-0.09473,0.46777-0.27832,0.5498-0.54785
		c0.07812-0.26172,0.05371-0.58203-0.07324-0.96289c-0.12402-0.37012-0.29688-0.62696-0.51953-0.77149
		c-0.21875-0.14258-0.4707-0.16699-0.75488-0.07129c-0.21875,0.07227-0.38086,0.18457-0.48828,0.33496
		c-0.1123,0.16113-0.13867,0.3291-0.08008,0.50488l0.05273,0.15723l0.54883-0.18457l0.17969,0.53613l-1.26855,0.4248
		l-0.60547-1.8086l0.47168-0.15723l0.19336,0.31934c0.13477-0.3623,0.42969-0.61914,0.88574-0.77246
		c0.41895-0.13965,0.7998-0.13672,1.14258,0.00879c0.45312,0.19141,0.78418,0.60156,0.99512,1.22949
		c0.18945,0.56738,0.19336,1.05957,0.00977,1.47852c-0.18457,0.42676-0.53906,0.72754-1.06152,0.90234
		c-0.50977,0.1709-0.93555,0.15527-1.27539-0.0459C21.93715,34.51137,21.75746,34.33363,21.59535,34.09438z"/>
	<path d="M20.29848,31.66176l0.52246,3.56543l-0.77148,0.11328l-0.52246-3.56543L20.29848,31.66176z"/>
	<path d="M18.98695,31.90199l-0.09668,3.60156l-0.77539-0.02051l-1.43457-2.47168l-0.06543,2.43164l-0.73242-0.02051
		l0.09668-3.60156l0.7749,0.02051l1.43457,2.47168l0.06543-2.43164L18.98695,31.90199z"/>
	<path d="M15.48744,31.72621l-0.93018,3.48145l-2.57715-0.68848l0.16504-0.61719l1.82422,0.4873l0.2085-0.78027l-1.72266-0.46094
		l0.16553-0.61914l1.72266,0.45996l0.22607-0.8457l-1.90332-0.50879l0.16504-0.61719L15.48744,31.72621z"/>
	<path d="M12.50209,30.86781l-1.67676,3.18946L8.464,32.81606l0.29736-0.56641l1.67139,0.87891l0.37598-0.71484l-1.57861-0.83008
		l0.29883-0.56836l1.57812,0.83008l0.40723-0.77441l-1.74316-0.91699l0.29736-0.56641L12.50209,30.86781z"/>
	<path d="M9.79262,29.39613l-2.35938,2.72363l-1.30176-1.12696c-0.33301-0.28906-0.5-0.59082-0.50049-0.90625
		c-0.00195-0.24414,0.09961-0.48535,0.30566-0.72363c0.29346-0.33789,0.66406-0.44336,1.1123-0.31445l0.41992-1.66504
		l0.66016,0.57129l-0.42432,1.49219l0.58594,0.50684l0.91992-1.06152L9.79262,29.39613z M7.8932,30.41273l-0.56787-0.49219
		c-0.31055-0.26855-0.57568-0.27734-0.79443-0.02441c-0.1123,0.12988-0.15381,0.25586-0.125,0.37988
		c0.02832,0.12207,0.12109,0.25,0.27734,0.38574l0.56836,0.49219L7.8932,30.41273z"/>
	<path d="M5.45424,24.35316l0.31006,0.57031l-2.02881-0.60059l1.43018,2.63379l-0.40625,0.2207l-1.43018-2.63379l-0.60059,2.0293
		l-0.30957-0.57031l0.69336-2.34277L5.45424,24.35316z"/>
	<path d="M4.24916,21.15492l-3.52588,0.74512l-0.16113-0.7627l3.52588-0.74512L4.24916,21.15492z"/>
	<path d="M3.89906,18.9098l-2.96094,0.13574l0.05566,1.21191l-0.63867,0.0293l-0.14746-3.20312l0.63867-0.0293l0.05615,1.2124
		l2.96094-0.13623L3.89906,18.9098z"/>
	<path d="M3.85853,16.65736l-3.54785-0.6333l0.46924-2.62646l0.62939,0.11279l-0.33203,1.8584l0.79492,0.14209l0.31348-1.75537
		l0.63184,0.11279l-0.31348,1.75537l0.86182,0.15381l0.34619-1.93896l0.62988,0.1123L3.85853,16.65736z"/>
	<path d="M4.43764,13.64076l-3.30859-1.4292l0.68311-1.58105c0.1748-0.4043,0.41211-0.6543,0.71289-0.75
		c0.23291-0.07568,0.49365-0.05127,0.78174,0.07373c0.41162,0.17773,0.62354,0.49951,0.63574,0.96582l1.71387-0.10107
		l-0.34619,0.80127l-1.5498,0.04492L3.45277,12.3766l1.29004,0.55713L4.43764,13.64076z M2.89613,12.13588l0.29785-0.68994
		c0.16309-0.37695,0.09082-0.63184-0.21631-0.76465c-0.15723-0.06787-0.29053-0.06934-0.3999-0.00488
		c-0.10693,0.06396-0.20166,0.19092-0.28369,0.38086l-0.29785,0.68994L2.89613,12.13588z"/>
	<path d="M5.62465,10.83168L3.56312,7.59144L4.1515,6.81898l3.67139,1.12744L7.32191,8.60365L6.55141,8.36L5.6476,9.54603
		l0.43799,0.68018L5.62465,10.83168z M5.29164,8.99623l0.63379-0.83154l-1.54248-0.521L5.29164,8.99623z"/>
	<path d="M8.39369,7.54994L6.44984,5.31215l-0.9165,0.7959L5.11391,5.62514l2.4209-2.10303l0.41943,0.48291l-0.91602,0.7959
		l1.94385,2.23779L8.39369,7.54994z"/>
	<path d="M10.13002,6.12465L8.42934,2.94789l2.35156-1.25928l0.30225,0.56396L9.41859,3.14369L9.79945,3.8556l1.57227-0.8418
		l0.30273,0.56592l-1.57178,0.8418l0.41309,0.77148l1.73633-0.92969l0.30225,0.56396L10.13002,6.12465z"/>
	<path d="M16.07484,3.97816l-0.64258,0.0918l1.26904-1.69287L13.735,2.80189l-0.06592-0.45752l2.9668-0.4248l-1.69336-1.26904
		l0.64258-0.0918l1.95459,1.46484L16.07484,3.97816z"/>
</g>
<g>
</g>
<g>
</g>
<g>
</g>
<g>
</g>
<g>
</g>
<g>
</g>
<g>
</g>
<g>
</g>
<g>
</g>
<g>
</g>
<g>
</g>
<g>
</g>
<g>
</g>
<g>
</g>
<g>
</g>
</svg>
