<?xml version="1.0" encoding="utf-8"?>
<!-- Generator: Adobe Illustrator 24.2.0, SVG Export Plug-In . SVG Version: 6.00 Build 0)  -->
<svg version="1.1" id="Layer_1" xmlns="http://www.w3.org/2000/svg" xmlns:xlink="http://www.w3.org/1999/xlink" x="0px" y="0px"
	 viewBox="0 0 709.9 200.8" style="enable-background:new 0 0 709.9 200.8;" xml:space="preserve" width="15" height="10">
<style type="text/css">
	.st0{fill:#FFCF45;}
	.st1{fill:#45B27E;}
	.st2{fill:#AED6BD;}
	.st3{fill:#FCC025;}
	.st4{fill:#FEE250;}
	.st5{fill:#006B5F;}
	.st6{fill:#F99B1C;}
	.st7{fill:none;}
</style>
<g>
	<g>
		<rect x="17.4" y="21" class="st7" width="675.1" height="158.9"/>
		<path d="M693.7,181.1H16.3V19.9h677.4V181.1z M18.6,178.8h672.7V22.2H18.6V178.8z"/>
	</g>
	<g>
		<path d="M527,109.4c-1.4,1.9-3.5,2.8-6.2,2.8c-2.7,0-4.9-1-6.4-3.1c-1.4-1.9-2.1-4.5-2.1-7.8c0-3.4,0.7-6.1,2-8.1
			c1.5-2.3,3.7-3.5,6.6-3.5c2.3,0,4.1,0.7,5.4,2.1c0.9,0.9,1.5,2.2,2,3.9l2.3-0.6c-0.5-2.3-1.5-4.1-3-5.3c-1.7-1.4-3.9-2.1-6.7-2.1
			c-3.4,0-6.1,1.2-8.1,3.5c-2,2.4-3,5.7-3,10c0,4.6,1.2,8.1,3.7,10.4c1.9,1.8,4.3,2.7,7.3,2.7c5.7,0,9.1-2.9,10.4-8.8l-2.4-0.4
			C528.4,106.8,527.8,108.3,527,109.4z"/>
		<rect x="541.5" y="88.3" width="2.3" height="25.3"/>
		<polygon points="553.9,90.4 563.1,90.4 563.1,113.7 565.5,113.7 565.5,90.4 574.7,90.4 574.7,88.3 553.9,88.3 		"/>
		<rect x="584.8" y="88.3" width="2.3" height="25.3"/>
		<polygon points="601.3,101.8 615.2,101.8 615.2,99.7 601.3,99.7 601.3,90.4 615.9,90.4 615.9,88.3 598.9,88.3 598.9,113.7
			616.5,113.7 616.5,111.5 601.3,111.5 		"/>
		<path d="M643.4,102.5c-1-1.2-2.7-2-4.9-2.4l-4.9-1c-1.7-0.3-2.9-0.9-3.7-1.6c-0.8-0.8-1.2-1.8-1.2-3.1c0-1.5,0.5-2.6,1.5-3.4
			c1.1-0.9,2.7-1.3,4.8-1.3c2.3,0,4,0.5,5.2,1.6c0.8,0.7,1.5,1.9,2.1,3.4l2.2-0.7c-0.6-2-1.5-3.5-2.7-4.5c-1.6-1.3-3.8-1.9-6.8-1.9
			c-2.9,0-5.1,0.7-6.6,2c-1.4,1.2-2.2,2.9-2.2,4.9c0,3.7,2.3,6,6.9,6.9l4.3,0.8c1.7,0.3,2.9,0.8,3.7,1.6c0.9,0.8,1.3,1.9,1.3,3.3
			c0,3.2-2.3,4.9-7,4.9c-2.6,0-4.5-0.7-5.8-2.1c-0.7-0.8-1.3-2-1.7-3.6l-2.3,0.6c0.6,2.4,1.6,4.1,2.9,5.2c1.6,1.4,4,2.1,7,2.1
			c3.2,0,5.7-0.7,7.3-2.1c1.5-1.2,2.2-2.9,2.2-5.1C645,105.2,644.4,103.7,643.4,102.5z"/>
		<path d="M112.1,74.9c-2.5-1.8-6.3-2.7-11.2-2.7H82.6v24.5h18.3c10.1,0,15.2-4.2,15.2-12.5C116,79.9,114.7,76.8,112.1,74.9z
			 M100.9,94.6H84.7V74.2h16.2c4.5,0,7.9,0.8,10,2.3c2.1,1.5,3.1,4,3.1,7.6C114,91.2,109.7,94.6,100.9,94.6z"/>
		<path d="M134.3,84.5c0-7.4-2-13.4-5.8-17.8c-4.9-5.7-12.7-8.5-23-8.5H65v84.7h19.7v-32.2h16.1l15,32.1l0.1,0.1h22.3l-18-35.7
			C129.6,102.4,134.3,94.8,134.3,84.5z M134.8,140.8h-17.7l-15-32.1l-0.1-0.1H82.6v32.2H67V60.2h38.5c9.7,0,17,2.6,21.5,7.8
			c3.5,4,5.3,9.5,5.3,16.4c0,9.9-4.6,16.9-14,21.2l-1,0.4L134.8,140.8z"/>
		<path d="M200.9,142.8h19.9V58.1h-19.9V142.8z M202.9,60.2h15.8v80.6h-15.8V60.2z"/>
		<path d="M332.7,92.8l-13.8-2.4c-4.9-0.9-8.3-2.1-10.1-3.7c-1.5-1.3-2.2-3-2.2-5.4c0-2.9,1.2-5.1,3.7-6.6c2.5-1.5,5.8-2.3,10.1-2.3
			c5.4,0,9.6,1.2,12.5,3.6c2.3,1.9,4.2,5,5.6,9.2l0.3,1l18.5-5.6l-0.3-1c-2.1-7.1-5.6-12.5-10.2-16.2c-6-4.7-14.7-7.1-25.9-7.1
			c-9.9,0-18,2.1-24.1,6.2c-6.8,4.6-10.2,11.3-10.2,19.7c0,7.8,2.9,14,8.6,18.4c4.4,3.3,11,5.7,19.6,7.1l10,1.6
			c4.2,0.7,7.4,1.9,9.5,3.5c1.9,1.5,2.9,3.6,2.9,6.5c0,6.3-4.9,9.4-15,9.4c-6.3,0-11.1-1.5-14.1-4.6c-2.2-2.2-3.9-5.6-4.9-10.1
			l-0.2-1l-19.4,4.7l0.3,1c2.4,9.6,7,16.5,13.6,20.6c5.9,3.8,14.2,5.7,24.7,5.7c11.5,0,20.4-2.5,26.7-7.4c6-4.7,9-11.2,9-19.3
			c0-7.3-2.1-13.2-6.4-17.4C347.5,96.9,341.2,94.3,332.7,92.8z M347.3,135.8c-5.9,4.6-14.4,7-25.4,7c-10.1,0-18-1.8-23.6-5.4
			c-5.9-3.7-10.1-9.9-12.4-18.4l15.3-3.7c1.2,4.4,2.9,7.8,5.2,10.1c3.4,3.4,8.7,5.2,15.5,5.2c11.3,0,17.1-3.9,17.1-11.5
			c0-3.5-1.2-6.2-3.7-8.1c-2.4-1.8-5.9-3.2-10.5-3.9l-10-1.6c-8.2-1.3-14.5-3.6-18.6-6.7c-5.2-3.9-7.8-9.6-7.8-16.7
			c0-7.8,3-13.7,9.3-18c5.7-3.9,13.4-5.9,22.9-5.9c10.7,0,19,2.2,24.6,6.7c4.1,3.2,7.2,8,9.2,14.2L340,83.5c-1.5-4-3.4-7.1-5.9-9.2
			c-3.3-2.7-7.9-4.1-13.8-4.1c-4.6,0-8.3,0.9-11.1,2.6c-3.1,1.9-4.7,4.8-4.7,8.4c0,3,1,5.3,2.9,7c2.2,1.9,5.8,3.3,11.1,4.2l13.8,2.4
			c8.1,1.4,13.9,3.9,17.4,7.4c3.8,3.8,5.7,9.2,5.7,16C355.6,125.6,352.8,131.5,347.3,135.8z"/>
		<path d="M442.2,108.1h40.9V91.3h-40.9V74.9h43.3V58.1h-63.2v84.7h65.1v-16.7h-45.2V108.1z M485.3,128.2v12.6h-61V60.2h59.1v12.6
			h-43.3v20.6H481V106h-40.9v22.1H485.3z"/>
		<rect x="165.3" y="89.5" width="2.4" height="22.9"/>
		<rect x="252.2" y="89.5" width="2.4" height="22.9"/>
		<rect x="390.2" y="89.5" width="2.4" height="22.9"/>
	</g>
</g>
</svg>
