<svg id="Layer_1" data-name="Layer 1" xmlns="http://www.w3.org/2000/svg" viewBox="0 0 678.39 233.11" width="15" height="10"><defs><style>.cls-1{fill:none;stroke:#231f20;stroke-miterlimit:10;}.cls-2{fill:#231f20;}</style></defs><rect class="cls-1" x="1.66" y="1.66" width="675.06" height="158.9"/><path class="cls-1" d="M713.64,201.49H36.25V40.26H713.64ZM38.58,199.16H711.31V42.59H38.58Z" transform="translate(-35.75 -39.76)"/><path class="cls-2" d="M547,129.76a7.23,7.23,0,0,1-6.15,2.8,7.42,7.42,0,0,1-6.39-3.13,13.1,13.1,0,0,1-2.07-7.77,14.52,14.52,0,0,1,2-8.06,7.4,7.4,0,0,1,6.61-3.46,7,7,0,0,1,5.4,2.1,9.27,9.27,0,0,1,2,3.91l2.35-.62a9.35,9.35,0,0,0-3-5.34,10.25,10.25,0,0,0-6.75-2.1,10,10,0,0,0-8.11,3.55q-3,3.58-3,10,0,6.93,3.68,10.39a10.16,10.16,0,0,0,7.25,2.66q8.5,0,10.36-8.82l-2.43-.36A9.71,9.71,0,0,1,547,129.76Z" transform="translate(-35.75 -39.76)"/><rect class="cls-2" x="525.71" y="68.93" width="2.35" height="25.34"/><polygon class="cls-2" points="538.14 71.05 547.35 71.05 547.35 94.28 549.72 94.28 549.72 71.05 558.92 71.05 558.92 68.93 538.14 68.93 538.14 71.05"/><rect class="cls-2" x="569.01" y="68.93" width="2.35" height="25.34"/><polygon class="cls-2" points="585.49 82.41 599.41 82.41 599.41 80.29 585.49 80.29 585.49 71.05 600.14 71.05 600.14 68.93 583.14 68.93 583.14 94.28 600.69 94.28 600.69 92.16 585.49 92.16 585.49 82.41"/><path class="cls-2" d="M663.37,122.91a8.48,8.48,0,0,0-4.88-2.38l-4.91-1a7.49,7.49,0,0,1-3.71-1.61,4,4,0,0,1-1.19-3.08,4.11,4.11,0,0,1,1.51-3.42,9.29,9.29,0,0,1,10,.28,7.91,7.91,0,0,1,2.07,3.43l2.2-.71a8.72,8.72,0,0,0-2.69-4.46c-1.56-1.28-3.82-1.92-6.76-1.92a9.89,9.89,0,0,0-6.63,2,6.14,6.14,0,0,0-2.15,4.93q0,5.55,6.86,6.89l4.3.84a7.33,7.33,0,0,1,3.66,1.59,4.35,4.35,0,0,1,1.28,3.33q0,4.86-7,4.86-3.89,0-5.78-2.13a9.26,9.26,0,0,1-1.72-3.65l-2.33.56a9.94,9.94,0,0,0,2.9,5.24c1.64,1.4,4,2.1,7,2.1q4.83,0,7.3-2.09a6.19,6.19,0,0,0,2.2-5A6.64,6.64,0,0,0,663.37,122.91Z" transform="translate(-35.75 -39.76)"/><path class="cls-2" d="M132.06,95.27c-2.49-1.8-6.25-2.71-11.2-2.71H102.61v24.53h18.25c10.06,0,15.16-4.22,15.16-12.53C136,100.3,134.69,97.18,132.06,95.27ZM120.86,115h-16.2V94.61h16.2c4.51,0,7.87.78,10,2.32s3.1,4,3.1,7.63C134,111.61,129.68,115,120.86,115Z" transform="translate(-35.75 -39.76)"/><path class="cls-2" d="M154.32,104.88c0-7.43-2-13.42-5.82-17.8-4.92-5.67-12.67-8.54-23-8.54H85v84.67h19.71V131h16.09l15,32.1.05.11h22.34l-18-35.71C149.54,122.8,154.32,115.19,154.32,104.88Zm.46,56.28H137.09l-15-32.1-.06-.11H102.61v32.21H87V80.59h38.47c9.73,0,17,2.64,21.49,7.84,3.52,4,5.3,9.53,5.3,16.45,0,9.93-4.56,16.87-13.95,21.22l-1,.45Z" transform="translate(-35.75 -39.76)"/><path class="cls-2" d="M220.85,163.21h19.93V78.54H220.85Zm2.06-82.62h15.81v80.57H222.91Z" transform="translate(-35.75 -39.76)"/><path class="cls-2" d="M352.71,113.18l-13.8-2.41c-4.89-.86-8.31-2.11-10.15-3.72a6.76,6.76,0,0,1-2.17-5.44A7.33,7.33,0,0,1,330.27,95c2.47-1.5,5.85-2.26,10.07-2.26,5.36,0,9.55,1.22,12.45,3.62,2.33,1.93,4.21,5,5.57,9.16l.31,1,18.48-5.62-.3-1c-2.12-7.06-5.57-12.5-10.25-16.19-6-4.72-14.72-7.12-25.89-7.12-9.94,0-18,2.09-24.07,6.23-6.76,4.64-10.19,11.26-10.19,19.68,0,7.83,2.89,14,8.6,18.37,4.39,3.33,11,5.72,19.56,7.1l10,1.6c4.2.69,7.41,1.86,9.54,3.49A7.69,7.69,0,0,1,357,139.5c0,6.33-4.91,9.41-15,9.41-6.32,0-11.06-1.54-14.1-4.58-2.2-2.17-3.85-5.57-4.91-10.09l-.23-1-19.36,4.66.26,1c2.41,9.57,7,16.52,13.55,20.63,5.92,3.77,14.23,5.68,24.69,5.68,11.45,0,20.44-2.49,26.69-7.4,6-4.71,9-11.19,9-19.26,0-7.35-2.14-13.21-6.35-17.43C367.43,117.34,361.2,114.67,352.71,113.18Zm14.6,43c-5.88,4.61-14.44,6.95-25.42,6.95-10.06,0-18-1.8-23.59-5.36-5.89-3.68-10.06-9.87-12.4-18.38l15.33-3.69c1.15,4.42,2.91,7.81,5.22,10.08,3.43,3.43,8.66,5.17,15.54,5.17,11.34,0,17.09-3.86,17.09-11.46a9.74,9.74,0,0,0-3.67-8.09c-2.41-1.85-5.93-3.16-10.47-3.9l-10-1.6c-8.24-1.32-14.52-3.58-18.64-6.71-5.16-3.94-7.78-9.58-7.78-16.73,0-7.81,3-13.69,9.29-18,5.68-3.89,13.39-5.87,22.91-5.87,10.7,0,19,2.25,24.62,6.69,4.12,3.24,7.23,8,9.25,14.19L360,103.93a20.67,20.67,0,0,0-5.88-9.16c-3.28-2.71-7.91-4.08-13.76-4.08-4.6,0-8.35.86-11.15,2.56a9.35,9.35,0,0,0-4.65,8.36,8.76,8.76,0,0,0,2.87,7c2.16,1.9,5.8,3.27,11.14,4.2l13.81,2.41c8.06,1.42,13.93,3.9,17.43,7.37,3.81,3.81,5.74,9.18,5.74,16C375.53,146,372.77,151.89,367.31,156.19Z" transform="translate(-35.75 -39.76)"/><path class="cls-2" d="M462.18,128.49h40.88V111.72H462.18V95.26h43.29V78.54H442.25v84.67h65.09V146.5H462.18Zm43.1,20.06v12.61h-61V80.59h59.11V93.2H460.12v20.57H501v12.66H460.12v22.12Z" transform="translate(-35.75 -39.76)"/><rect class="cls-2" x="149.51" y="70.16" width="2.45" height="22.89"/><rect class="cls-2" x="236.45" y="70.16" width="2.45" height="22.89"/><rect class="cls-2" x="374.4" y="70.16" width="2.45" height="22.89"/><path class="cls-2" d="M83.28,267.59l7.33-19.25H92.9l7.31,19.25H98.26l-1.9-5.14H86.93L85,267.59Zm4.24-6.67h8.24l-4.08-11Z" transform="translate(-35.75 -39.76)"/><path class="cls-2" d="M109.21,267.59V248.34h9.25a8.09,8.09,0,0,1,4.4,1,4.67,4.67,0,0,1-.44,8,4.46,4.46,0,0,1,3.09,4.45q0,5.79-7.94,5.79Zm4.09-11.67h4.39a4,4,0,0,0,2.34-.53,1.87,1.87,0,0,0,.73-1.64,1.84,1.84,0,0,0-1.11-1.85,5,5,0,0,0-2-.3H113.3Zm0,8.4h4.34a4.74,4.74,0,0,0,3-.71,2.31,2.31,0,0,0,.7-1.88,2.2,2.2,0,0,0-1.11-2.14,5.87,5.87,0,0,0-2.57-.43H113.3Z" transform="translate(-35.75 -39.76)"/><path class="cls-2" d="M128.8,267.59V248.34h5.57l4.7,14.3,4.63-14.3h5.45v19.25h-3.94V253.87l-4.53,13.72h-3.41l-4.56-13.72v13.72Z" transform="translate(-35.75 -39.76)"/><path class="cls-2" d="M155.76,267.59l-4.42-19.25h4.34l2.83,13.89,3.4-13.89H166l3.29,13.89,2.91-13.89h4.23l-4.67,19.25h-4.51L163.88,254l-3.57,13.59Z" transform="translate(-35.75 -39.76)"/><path class="cls-2" d="M185.12,267.59V248.34h14v3.41h-9.89v4.45h8.79v3.42h-8.79v8Z" transform="translate(-35.75 -39.76)"/><path class="cls-2" d="M210.63,247.88a8.91,8.91,0,0,1,6.91,2.69A10.54,10.54,0,0,1,220,258a10.39,10.39,0,0,1-2.48,7.36,8.87,8.87,0,0,1-6.86,2.7,9.29,9.29,0,0,1-6.47-2.22c-2-1.77-3-4.39-3-7.84q0-4.76,2.47-7.42A8.91,8.91,0,0,1,210.63,247.88Zm0,3.44a4.51,4.51,0,0,0-3.81,1.83A7.9,7.9,0,0,0,205.5,258a7.82,7.82,0,0,0,1.32,4.8,4.44,4.44,0,0,0,3.78,1.82,4.54,4.54,0,0,0,3.56-1.49,7.38,7.38,0,0,0,1.62-5.13,7.84,7.84,0,0,0-1.34-4.82A4.53,4.53,0,0,0,210.63,251.32Z" transform="translate(-35.75 -39.76)"/><path class="cls-2" d="M223.2,248.34h4.16v12q0,4.23,4,4.23t3.93-4.23v-12h4.16v11.74a8,8,0,0,1-2.09,5.9q-2,2.07-6,2.07t-6.17-2.25a8.09,8.09,0,0,1-1.92-5.72Z" transform="translate(-35.75 -39.76)"/><path class="cls-2" d="M243.26,267.59V248.34h4.14l8,13v-13h3.91v19.25h-4.14l-8-13v13Z" transform="translate(-35.75 -39.76)"/><path class="cls-2" d="M263.36,267.59V248.34H270q5.05,0,7.52,2.4c1.61,1.57,2.42,4,2.42,7.15q0,9.69-9.94,9.7Zm4.16-3.34h2.53a5.23,5.23,0,0,0,4.29-1.79,7,7,0,0,0,1.33-4.59q0-3.33-1.64-4.88a5.47,5.47,0,0,0-3.88-1.31h-2.63Z" transform="translate(-35.75 -39.76)"/><path class="cls-2" d="M280.78,267.59l7.09-19.25h5.19l7.09,19.25h-4.41l-1.46-4.07h-8l-1.47,4.07Zm6.72-7.36h5.58L290.3,252Z" transform="translate(-35.75 -39.76)"/><path class="cls-2" d="M305,267.59V251.75h-6.48v-3.41h17.12v3.41h-6.48v15.84Z" transform="translate(-35.75 -39.76)"/><path class="cls-2" d="M318.17,267.59V248.34h4.16v19.25Z" transform="translate(-35.75 -39.76)"/><path class="cls-2" d="M335.06,247.88a8.88,8.88,0,0,1,6.9,2.69,10.5,10.5,0,0,1,2.49,7.42,10.35,10.35,0,0,1-2.49,7.36,8.85,8.85,0,0,1-6.85,2.7,9.28,9.28,0,0,1-6.47-2.22c-2-1.77-3-4.39-3-7.84a10.54,10.54,0,0,1,2.47-7.42A8.94,8.94,0,0,1,335.06,247.88Zm0,3.44a4.54,4.54,0,0,0-3.82,1.83,7.9,7.9,0,0,0-1.32,4.82,7.82,7.82,0,0,0,1.32,4.8,4.47,4.47,0,0,0,3.78,1.82,4.56,4.56,0,0,0,3.57-1.49,7.38,7.38,0,0,0,1.62-5.13,7.77,7.77,0,0,0-1.35-4.82A4.53,4.53,0,0,0,335.06,251.32Z" transform="translate(-35.75 -39.76)"/><path class="cls-2" d="M347.8,267.59V248.34h4.13l8,13v-13h3.91v19.25h-4.13l-8-13v13Z" transform="translate(-35.75 -39.76)"/><path class="cls-2" d="M374.79,267.59V248.34h1.78v8.21H387.7v-8.21h1.79v19.25H387.7v-9.43H376.57v9.43Z" transform="translate(-35.75 -39.76)"/><path class="cls-2" d="M404.73,261.13H394.52a7.47,7.47,0,0,0,.9,3.64,3.68,3.68,0,0,0,3.39,1.84,3.9,3.9,0,0,0,3.1-1.24,6.6,6.6,0,0,0,1-1.95l1.53.56a6.13,6.13,0,0,1-1.36,2.37,6.21,6.21,0,0,1-8.51,0,7.65,7.65,0,0,1-1.82-5.49,8,8,0,0,1,1.54-5.12,5.53,5.53,0,0,1,4.63-2.12,5.44,5.44,0,0,1,4.42,1.86,6.53,6.53,0,0,1,1.37,4.33v.89A2.49,2.49,0,0,1,404.73,261.13Zm-10.19-1.29h8.51a5.68,5.68,0,0,0-.79-3.11,3.69,3.69,0,0,0-3.34-1.74,3.9,3.9,0,0,0-3.53,2A6.37,6.37,0,0,0,394.54,259.84Z" transform="translate(-35.75 -39.76)"/><path class="cls-2" d="M407.36,267.59V254.11H409v2.37a5.57,5.57,0,0,1,1.57-2,3.13,3.13,0,0,1,1.93-.56,5,5,0,0,1,1.32.16l-.17,1.42a3.53,3.53,0,0,0-1.12-.15,3,3,0,0,0-2.5,1.17,6.86,6.86,0,0,0-1,4.12v6.92Z" transform="translate(-35.75 -39.76)"/><path class="cls-2" d="M417.46,265.69v1.9h-1.63V248.34h1.63v8a5.19,5.19,0,0,1,4.7-2.65,4.75,4.75,0,0,1,4.08,2,8.41,8.41,0,0,1,1.36,5.05,8.68,8.68,0,0,1-1.4,5.21,5.17,5.17,0,0,1-4.47,2.15,4.88,4.88,0,0,1-2.54-.63A5.46,5.46,0,0,1,417.46,265.69Zm4.35-10.62a3.79,3.79,0,0,0-3.4,1.88,7.41,7.41,0,0,0-1,4.05,7,7,0,0,0,1,3.88,3.59,3.59,0,0,0,3.2,1.73,3.83,3.83,0,0,0,2.91-1.11c.92-1,1.37-2.49,1.37-4.6Q425.86,255.07,421.81,255.07Z" transform="translate(-35.75 -39.76)"/><path class="cls-2" d="M441.94,261.13H431.73a7.47,7.47,0,0,0,.9,3.64,3.68,3.68,0,0,0,3.39,1.84,3.9,3.9,0,0,0,3.1-1.24,6.38,6.38,0,0,0,1-1.95l1.53.56a6,6,0,0,1-1.36,2.37,6.22,6.22,0,0,1-8.51,0,7.69,7.69,0,0,1-1.82-5.49,8,8,0,0,1,1.55-5.12,6.15,6.15,0,0,1,9.05-.26,6.59,6.59,0,0,1,1.37,4.33v.89A2.41,2.41,0,0,1,441.94,261.13Zm-10.18-1.29h8.5a5.68,5.68,0,0,0-.79-3.11,3.69,3.69,0,0,0-3.34-1.74,3.88,3.88,0,0,0-3.52,2A6.13,6.13,0,0,0,431.76,259.84Z" transform="translate(-35.75 -39.76)"/><path class="cls-2" d="M444.57,267.59V254.11h1.63v2.37a5.57,5.57,0,0,1,1.57-2,3.13,3.13,0,0,1,1.93-.56,5.1,5.1,0,0,1,1.33.16l-.18,1.42a3.48,3.48,0,0,0-1.12-.15,2.92,2.92,0,0,0-2.49,1.17,6.86,6.86,0,0,0-1,4.12v6.92Z" transform="translate(-35.75 -39.76)"/><path class="cls-2" d="M453.94,255.46h-1.85v-1.35h1.85v-3.84h1.63v3.84h2.93v1.35h-2.93v9A2.26,2.26,0,0,0,456,266a1.78,1.78,0,0,0,1.28.37,8.58,8.58,0,0,0,1.38-.11l.12,1.46a20.34,20.34,0,0,1-2.09.15,2.85,2.85,0,0,1-1.85-.52,3,3,0,0,1-.88-2.44Z" transform="translate(-35.75 -39.76)"/><path class="cls-2" d="M481.69,270.53l-2-3.23a9.81,9.81,0,0,1-3.81.75,8.12,8.12,0,0,1-6.43-2.65,12.88,12.88,0,0,1,0-14.89,9.15,9.15,0,0,1,12.84,0c1.59,1.79,2.38,4.28,2.38,7.45q0,5.81-3.54,8.5l2,3.17Zm-2.94-4.7-2.29-3.68,1.41-.9,2.27,3.66q2.58-2.43,2.58-6.94a9.71,9.71,0,0,0-1.75-6,6.5,6.5,0,0,0-10.23,0,11.27,11.27,0,0,0,0,12,6,6,0,0,0,5.07,2.48A7,7,0,0,0,478.75,265.83Z" transform="translate(-35.75 -39.76)"/><path class="cls-2" d="M487.9,254.11h1.63V263a3.93,3.93,0,0,0,.72,2.51,3,3,0,0,0,2.5,1.06,3.69,3.69,0,0,0,3.28-1.9,7.09,7.09,0,0,0,1-3.84v-6.76h1.63v13.48H497v-2.37a6.12,6.12,0,0,1-1.57,1.92,5.15,5.15,0,0,1-3.12.91,4.6,4.6,0,0,1-2.74-.8,4.32,4.32,0,0,1-1.71-3.78Z" transform="translate(-35.75 -39.76)"/><path class="cls-2" d="M510.43,259v-1.09q0-2.92-3.26-2.92a3.68,3.68,0,0,0-2.68.88,4.36,4.36,0,0,0-1,1.78L502,257.3q1.11-3.65,5.26-3.65a5.1,5.1,0,0,1,3.75,1.23,4,4,0,0,1,1.05,3v7.45a9.26,9.26,0,0,0,.36,2.3h-1.61s0-.07,0-.14a1.3,1.3,0,0,0,0-.14,5.21,5.21,0,0,1-.18-1.64,6.67,6.67,0,0,1-2.3,1.95,6,6,0,0,1-2.55.43,4.21,4.21,0,0,1-2.86-1,3.68,3.68,0,0,1-1.23-2.92,4,4,0,0,1,1.43-3.35,6.31,6.31,0,0,1,3.08-1.15Zm0,1.41-4.36.69c-1.85.29-2.78,1.28-2.78,3a2.41,2.41,0,0,0,.78,1.95,2.84,2.84,0,0,0,1.9.58,5,5,0,0,0,2.77-.77,3.62,3.62,0,0,0,1.69-3.21Z" transform="translate(-35.75 -39.76)"/><path class="cls-2" d="M515.42,267.59V254.11h1.63v2.34a6.14,6.14,0,0,1,1.56-1.9,5,5,0,0,1,3.08-.9,4.42,4.42,0,0,1,3.34,1.27,4.59,4.59,0,0,1,1.16,3.29v9.38h-1.64v-8.94q0-3.54-3.25-3.54a3.66,3.66,0,0,0-3.25,1.88,7.07,7.07,0,0,0-1,3.85v6.75Z" transform="translate(-35.75 -39.76)"/><path class="cls-2" d="M539.36,256v-7.7H541v19.25h-1.63v-2.12a5.18,5.18,0,0,1-4.67,2.58,4.88,4.88,0,0,1-3.82-1.61,7.76,7.76,0,0,1-1.64-5.36,8.85,8.85,0,0,1,1.39-5.26,5.33,5.33,0,0,1,8.74.22Zm-4.2-1a3.6,3.6,0,0,0-3,1.42,7.09,7.09,0,0,0-1.15,4.39q0,5.73,4.06,5.73a3.76,3.76,0,0,0,3.18-1.52,6.91,6.91,0,0,0,1.21-4.32,7.11,7.11,0,0,0-1-3.93A3.71,3.71,0,0,0,535.16,255.07Z" transform="translate(-35.75 -39.76)"/><path class="cls-2" d="M545.56,255.46h-1.84v-1.35h1.84v-3.84h1.64v3.84h2.93v1.35H547.2v9a2.21,2.21,0,0,0,.41,1.53,1.75,1.75,0,0,0,1.27.37,8.58,8.58,0,0,0,1.38-.11l.13,1.46a20.69,20.69,0,0,1-2.1.15,2.82,2.82,0,0,1-1.84-.52,3,3,0,0,1-.89-2.44Z" transform="translate(-35.75 -39.76)"/><path class="cls-2" d="M559.29,267.59V248.34h9a6.75,6.75,0,0,1,4.81,1.62,5.87,5.87,0,0,1,1.74,4.47,5.72,5.72,0,0,1-2,4.58,7.51,7.51,0,0,1-5.06,1.63h-4.41v6.95Zm4.12-10.21h4a3.33,3.33,0,0,0,2.29-.78,2.76,2.76,0,0,0,.92-2.18,2.61,2.61,0,0,0-.84-2.08,3.44,3.44,0,0,0-2.32-.74h-4Z" transform="translate(-35.75 -39.76)"/><path class="cls-2" d="M577.45,267.59V254.11h3.68l.2,2.37a5.74,5.74,0,0,1,.84-1.46,3.08,3.08,0,0,1,2.5-1.07,7.43,7.43,0,0,1,1.44.16l-.33,3.24a12.39,12.39,0,0,0-1.44-.12,2.68,2.68,0,0,0-2.22,1,4.19,4.19,0,0,0-.79,2.7v6.64Z" transform="translate(-35.75 -39.76)"/><path class="cls-2" d="M594.11,253.65a6.93,6.93,0,0,1,5.42,2.13,7.33,7.33,0,0,1,1.72,5.09,7.23,7.23,0,0,1-1.72,5.05,6.88,6.88,0,0,1-5.36,2.13,7.15,7.15,0,0,1-5.11-1.77,7.08,7.08,0,0,1-2-5.41,7.39,7.39,0,0,1,1.69-5.09A6.87,6.87,0,0,1,594.11,253.65Zm0,3a2.73,2.73,0,0,0-2.33,1.16,5,5,0,0,0-.85,3.08,4.93,4.93,0,0,0,.85,3.05,2.77,2.77,0,0,0,2.34,1.14,2.89,2.89,0,0,0,2.31-1,4.86,4.86,0,0,0,.93-3.23,4.64,4.64,0,0,0-1.13-3.35A2.78,2.78,0,0,0,594.08,256.63Z" transform="translate(-35.75 -39.76)"/><path class="cls-2" d="M604,269.88l3.35-1.25a2.93,2.93,0,0,0,2.79,1.39,3.66,3.66,0,0,0,2.64-.83,2.88,2.88,0,0,0,.72-2.17v-1.78a4.75,4.75,0,0,1-1.44,1.4,5.39,5.39,0,0,1-2.81.66,5.48,5.48,0,0,1-4-1.43,6.92,6.92,0,0,1-1.73-5.12,8.26,8.26,0,0,1,1.32-5,5.39,5.39,0,0,1,4.65-2.12,4.37,4.37,0,0,1,4.11,2.14l.18-1.68h3.6v12.53a6.06,6.06,0,0,1-1.58,4.55q-1.75,1.68-5.36,1.68A9.71,9.71,0,0,1,606,272,4,4,0,0,1,604,269.88Zm6.54-13.3q-3.07,0-3.07,3.88c0,2.6,1,3.91,3,3.91s3.06-1.3,3.06-3.9S612.52,256.58,610.51,256.58Z" transform="translate(-35.75 -39.76)"/><path class="cls-2" d="M620.87,267.59V254.11h3.68l.2,2.37a5.74,5.74,0,0,1,.84-1.46,3.1,3.1,0,0,1,2.5-1.07,7.43,7.43,0,0,1,1.44.16l-.33,3.24a12.39,12.39,0,0,0-1.44-.12,2.68,2.68,0,0,0-2.22,1,4.19,4.19,0,0,0-.79,2.7v6.64Z" transform="translate(-35.75 -39.76)"/><path class="cls-2" d="M638.85,258.88v-.58c0-1.26-.76-1.9-2.27-1.9a2.8,2.8,0,0,0-2,.64,3.29,3.29,0,0,0-.68,1l-3.29-.9a4.22,4.22,0,0,1,1.51-2.18,7.38,7.38,0,0,1,4.68-1.33c2.12,0,3.65.43,4.58,1.31a4.34,4.34,0,0,1,1.22,3.36v6.36a7.54,7.54,0,0,0,.54,2.91h-3.55a6.33,6.33,0,0,1-.28-1.39,7.47,7.47,0,0,1-2,1.39,7,7,0,0,1-2.67.46,5,5,0,0,1-3.25-1,4.36,4.36,0,0,1,.41-6.6,8.38,8.38,0,0,1,3.24-1Zm0,2.45-2.73.41c-1.53.23-2.3.92-2.3,2.06a1.48,1.48,0,0,0,.45,1.14,1.94,1.94,0,0,0,1.41.48,3.65,3.65,0,0,0,2.18-.64,2.18,2.18,0,0,0,1-1.89Z" transform="translate(-35.75 -39.76)"/><path class="cls-2" d="M646,267.59V254.11h3.71l.2,1.91a4.26,4.26,0,0,1,4-2.37,3.6,3.6,0,0,1,3.73,2.47,4.68,4.68,0,0,1,4.32-2.47q4.23,0,4.23,4.87v9.07h-3.87v-8.43c0-1.63-.62-2.44-1.85-2.44a2,2,0,0,0-1.73.93,5.54,5.54,0,0,0-.69,3v6.9h-3.89v-8.43c0-1.63-.61-2.44-1.83-2.44a2,2,0,0,0-1.73.93,5.4,5.4,0,0,0-.7,3v6.9Z" transform="translate(-35.75 -39.76)"/></svg>