<svg id="Layer_1" data-name="Layer 1" xmlns="http://www.w3.org/2000/svg" viewBox="0 0 32 32"><defs><style>.cls-1{fill:#fff;}</style></defs><path class="cls-1" d="M16.91,27.08A8.4,8.4,0,0,1,7.05,21c-.78-3-.29-6.3,4-8.88,8-4.88,10-6.83,10-6.83S27.61,24.62,16.91,27.08Z"/><path d="M15.14,28.27a9.45,9.45,0,0,1-9-7c-1.08-4.12.43-7.57,4.39-10,7.73-4.71,9.8-6.67,9.82-6.69L21.43,3.5,21.93,5c.18.51,4.21,12.51.54,19.11a7.85,7.85,0,0,1-5.34,4h0A9.07,9.07,0,0,1,15.14,28.27ZM20.49,7a102.83,102.83,0,0,1-9,6c-3.22,2-4.36,4.51-3.5,7.79a7.4,7.4,0,0,0,8.68,5.38h0a5.94,5.94,0,0,0,4-3C23.32,18.48,21.41,10.25,20.49,7Z"/><polygon points="22.63 19.07 14.93 22.15 16.82 17.74 23.39 14.92 22.61 13.08 17.96 15.07 21.9 5.88 20.1 5.12 16.05 14.57 13.92 9.61 12.08 10.39 14.96 17.11 13.08 21.5 9.93 13.63 8.07 14.37 11.96 24.1 11.1 26.11 12.9 26.89 13.81 24.75 23.37 20.93 22.63 19.07"/></svg>