<svg id="Layer_1" data-name="Layer 1" xmlns="http://www.w3.org/2000/svg" viewBox="0 0 32 32"><defs><style>.cls-1{fill:#fff;}</style></defs><ellipse class="cls-1" cx="16.22" cy="16" rx="10.07" ry="10.08"/><path d="M16.21,27a11,11,0,1,1,11-11A11,11,0,0,1,16.21,27Zm0-20.17A9.17,9.17,0,1,0,25.35,16,9.16,9.16,0,0,0,16.21,6.83Z"/><path d="M26.13,16.91V15.08H20.42a32.32,32.32,0,0,0-.31-3.75h4.37V9.66H19.79C19.18,7,18.11,5,16.55,5S13.91,7,13.3,9.66H8v1.67h5a30.24,30.24,0,0,0-.32,3.75H6.3v1.83h6.37A30.24,30.24,0,0,0,13,20.66H8v1.67H13.3C13.91,25,15,27,16.55,27s2.63-2,3.24-4.66h4.69V20.66H20.11a32.32,32.32,0,0,0,.31-3.75ZM16.54,6.84c.34,0,.91,1,1.37,2.82H15.18C15.64,7.86,16.21,6.89,16.54,6.84Zm-1.7,4.49h3.42a29.22,29.22,0,0,1,.33,3.75H14.5A27.54,27.54,0,0,1,14.84,11.33Zm1.71,13.83c-.34-.05-.91-1-1.37-2.83h2.73C17.45,24.13,16.88,25.11,16.55,25.16Zm1.71-4.5H14.84a27.39,27.39,0,0,1-.34-3.75h4.09A29.22,29.22,0,0,1,18.26,20.66Z"/></svg>