<?xml version="1.0" encoding="utf-8"?>
<!-- Generator: Adobe Illustrator 24.2.0, SVG Export Plug-In . SVG Version: 6.00 Build 0)  -->
<svg version="1.1" id="Layer_1" xmlns="http://www.w3.org/2000/svg" xmlns:xlink="http://www.w3.org/1999/xlink" x="0px" y="0px"
	 viewBox="0 0 22.7 22.8" style="enable-background:new 0 0 22.7 22.8;" xml:space="preserve">
<style type="text/css">
	.st0{fill:#FFFFFF;}
	.st1{fill:#46B27E;}
</style>
<ellipse class="st0" cx="11.4" cy="11.4" rx="10.1" ry="10.1"/>
<path class="st1" d="M11.4,22.4c-6.1,0-11-4.9-11-11s4.9-11,11-11s11,4.9,11,11S17.5,22.4,11.4,22.4z M11.4,2.2
	c-5.1,0-9.2,4.1-9.2,9.1s4.1,9.2,9.1,9.2c5.1,0,9.2-4.1,9.2-9.1c0,0,0,0,0,0C20.6,6.4,16.5,2.3,11.4,2.2z"/>
<path class="st1" d="M21.4,12.3v-1.8h-5.7c0-1.3-0.1-2.5-0.3-3.8h4.4V5.1H15c-0.6-2.7-1.7-4.7-3.2-4.7s-2.6,2-3.2,4.7H3.2v1.7h5
	C8,8,7.9,9.2,7.9,10.5H1.5v1.8h6.4c0,1.3,0.1,2.5,0.3,3.7h-5v1.7h5.3c0.6,2.7,1.7,4.7,3.2,4.7s2.6-2,3.2-4.7h4.7v-1.7h-4.4
	c0.2-1.2,0.3-2.5,0.3-3.7H21.4z M11.8,2.3c0.3,0,0.9,1,1.4,2.8h-2.7C10.9,3.3,11.4,2.3,11.8,2.3z M10.1,6.7h3.4
	c0.2,1.2,0.3,2.5,0.3,3.8H9.7C9.8,9.2,9.9,8,10.1,6.7z M11.8,20.6c-0.3,0-0.9-1-1.4-2.8h2.7C12.7,19.5,12.1,20.5,11.8,20.6z
	 M13.5,16.1h-3.4c-0.2-1.2-0.3-2.5-0.3-3.7h4.1C13.8,13.6,13.7,14.8,13.5,16.1z"/>
</svg>
