<svg id="Layer_1" data-name="Layer 1" xmlns="http://www.w3.org/2000/svg" viewBox="0 0 32 32"><defs><style>.cls-1{fill:#fff;}</style></defs><path class="cls-1" d="M21.1,15.08V10.27c0-3.14-2.21-5.7-4.9-5.7s-4.91,2.56-4.91,5.7v4.81"/><path d="M22.08,15.08H20.13V10.27c0-2.61-1.77-4.73-3.93-4.73s-3.94,2.12-3.94,4.73v4.81H10.31V10.27c0-3.68,2.64-6.68,5.89-6.68s5.88,3,5.88,6.68Z"/><path class="cls-1" d="M11.29,12.36v4.8c0,3.14,2.21,5.71,4.91,5.71s4.9-2.57,4.9-5.71v-4.8"/><path d="M16.2,23.84c-3.25,0-5.89-3-5.89-6.68v-4.8h1.95v4.8c0,2.61,1.77,4.74,3.94,4.74s3.93-2.13,3.93-4.74v-4.8h1.95v4.8C22.08,20.85,19.44,23.84,16.2,23.84Z"/><rect x="11.1" y="11.76" width="9.81" height="1.95"/><polygon points="17.17 25.59 17.17 18.02 20.92 18.02 20.92 16.07 11.1 16.07 11.1 18.02 15.22 18.02 15.22 25.59 11.29 25.59 11.29 27.54 21.1 27.54 21.1 25.59 17.17 25.59"/></svg>