<?xml version="1.0" standalone="no"?>
<!DOCTYPE svg PUBLIC "-//W3C//DTD SVG 20010904//EN"
 "http://www.w3.org/TR/2001/REC-SVG-20010904/DTD/svg10.dtd">
<svg version="1.0" xmlns="http://www.w3.org/2000/svg"
 width="316.000000pt" height="316.000000pt" viewBox="0 0 316.000000 316.000000"
 preserveAspectRatio="xMidYMid meet">
<metadata>
Created by potrace 1.11, written by Peter Selinger 2001-2013
</metadata>
<g transform="translate(0.000000,316.000000) scale(0.100000,-0.100000)"
fill="#000000" stroke="none">
<path d="M1395 3069 c-27 -4 -66 -10 -85 -13 -19 -4 -50 -9 -68 -12 -18 -4
-35 -10 -38 -15 -3 -5 -9 -7 -13 -4 -20 12 -379 -135 -401 -164 -3 -4 -23 -18
-45 -31 -22 -14 -47 -30 -55 -37 -88 -70 -150 -124 -199 -176 -73 -76 -102
-113 -179 -222 -40 -57 -156 -296 -157 -325 0 -3 -3 -9 -7 -15 -7 -11 -45
-164 -52 -210 -17 -103 -20 -144 -20 -265 0 -145 7 -220 30 -315 8 -33 17 -71
20 -85 3 -13 21 -65 40 -115 19 -49 35 -94 37 -100 1 -5 4 -12 7 -15 3 -3 18
-32 35 -65 16 -33 33 -62 36 -65 3 -3 14 -20 23 -38 9 -17 22 -32 28 -32 6 0
8 -3 5 -6 -7 -8 52 -94 65 -94 4 0 8 -5 8 -12 0 -6 18 -29 40 -50 22 -22 40
-44 40 -49 0 -5 3 -9 8 -9 4 0 27 -19 52 -43 59 -57 175 -147 189 -147 6 0 11
-4 11 -9 0 -9 121 -77 133 -73 4 1 7 -2 7 -7 0 -10 39 -27 53 -23 4 1 7 -3 7
-9 0 -5 5 -7 10 -4 5 3 10 2 10 -3 0 -6 175 -71 213 -78 4 -1 8 -2 10 -4 1 -1
11 -3 22 -5 11 -2 31 -6 45 -9 114 -24 157 -29 295 -30 109 0 248 9 278 19 7
2 29 6 49 9 64 10 249 75 343 121 123 61 292 173 342 227 11 12 37 38 57 56
19 17 33 32 30 32 -2 0 11 14 31 31 20 18 34 34 31 36 -3 3 5 15 18 27 12 11
42 50 66 86 24 36 48 68 54 72 6 4 7 8 2 8 -5 0 -1 9 9 20 10 11 15 20 11 20
-4 0 2 13 13 28 11 16 21 35 23 43 2 8 7 17 11 20 5 3 9 12 11 20 1 8 10 31
20 51 10 20 19 42 20 50 2 7 6 21 10 30 4 9 8 22 10 30 1 7 4 18 7 23 5 8 14
36 25 80 6 25 15 73 20 105 3 19 7 49 10 65 10 59 12 281 3 345 -20 146 -22
154 -56 270 -85 290 -275 570 -508 747 -27 21 -51 41 -53 46 -2 4 -10 7 -18 7
-8 0 -14 5 -14 10 0 6 -7 10 -15 10 -8 0 -15 4 -15 8 0 5 -16 14 -35 22 -19 8
-35 17 -35 20 0 8 -153 80 -230 108 -75 28 -194 60 -255 68 -27 3 -54 9 -59
12 -14 8 -315 9 -371 1z"/>
</g>
</svg>
